<svg xmlns="http://www.w3.org/2000/svg" viewBox="0 0 167.96 97.48"><defs><style>.cls-1{fill:#65c8d0;}</style></defs><g id="Layer_2" data-name="Layer 2"><g id="Layer_1-2" data-name="Layer 1"><path class="cls-1" d="M83.94,43.33h-5.3a1,1,0,0,0-.72.31l-4.27,4.45a1,1,0,0,0,0,1.39l4.27,4.45a1,1,0,0,0,.72.31h5.3a1,1,0,0,0,.86-.5l2.57-4.45a1,1,0,0,0,0-1L84.8,43.83A1,1,0,0,0,83.94,43.33Z"/><path class="cls-1" d="M60.38,54.79l-.91.33a1,1,0,0,0-.65,1.07L59,57.44a1,1,0,0,0,1.53.71l1.06-.67A1,1,0,0,0,62,56.29l-.33-.91A1,1,0,0,0,60.38,54.79Z"/><path class="cls-1" d="M70,49,68.4,50.67V53a.37.37,0,0,1-.36.37h-2.3L64.12,55a.36.36,0,0,1-.51,0L62,53.33H59.69a.37.37,0,0,1-.37-.37V50.67L57.7,49a.36.36,0,0,1,0-.51l1.62-1.62v-2.3a.37.37,0,0,1,.37-.37H62l1.63-1.62a.36.36,0,0,1,.51,0l1.62,1.62H68a.37.37,0,0,1,.36.37v2.3L70,48.53A.36.36,0,0,1,70,49Z"/><path class="cls-1" d="M74,31,70.3,34.72a1,1,0,0,0-.29.73l.13,6.16a1,1,0,0,0,1,1l6.17.14a1,1,0,0,0,.72-.3l3.75-3.74a1,1,0,0,0,.26-1l-1.33-5a1,1,0,0,0-.71-.71l-5-1.33A1,1,0,0,0,74,31Z"/><path class="cls-1" d="M58.41,28.86v5.29a1,1,0,0,0,.31.72l4.45,4.27a1,1,0,0,0,1.38,0L69,34.87a1,1,0,0,0,.31-.72V28.86a1,1,0,0,0-.5-.87l-4.46-2.57a1,1,0,0,0-1,0L58.91,28A1,1,0,0,0,58.41,28.86Z"/><path class="cls-1" d="M45.84,38.47l3.74,3.75a1,1,0,0,0,.73.29l6.17-.13a1,1,0,0,0,1-1l.14-6.17a1,1,0,0,0-.3-.73l-3.74-3.74a1,1,0,0,0-1-.26l-5,1.33a1,1,0,0,0-.71.71l-1.33,5A1,1,0,0,0,45.84,38.47Z"/><path class="cls-1" d="M43.79,54.24h5.29a1,1,0,0,0,.72-.31l4.27-4.45a1,1,0,0,0,0-1.39L49.8,43.64a1,1,0,0,0-.72-.31H43.79a1,1,0,0,0-.87.5l-2.57,4.46a1,1,0,0,0,0,1l2.57,4.45A1,1,0,0,0,43.79,54.24Z"/><path class="cls-1" d="M53.55,66.81l3.74-3.74a1,1,0,0,0,.3-.73l-.14-6.17a1,1,0,0,0-1-1l-6.17-.13a1,1,0,0,0-.73.29L45.84,59.1a1,1,0,0,0-.26,1l1.33,5a1,1,0,0,0,.71.71l5,1.33A1,1,0,0,0,53.55,66.81Z"/><path class="cls-1" d="M69.32,68.71V63.42A1,1,0,0,0,69,62.7l-4.46-4.27a1,1,0,0,0-1.38,0L58.72,62.7a1,1,0,0,0-.31.72v5.29a1,1,0,0,0,.5.87l4.45,2.57a1,1,0,0,0,1,0l4.46-2.57A1,1,0,0,0,69.32,68.71Z"/><path class="cls-1" d="M81.76,59,78,55.22a1,1,0,0,0-.72-.29l-6.17.13a1,1,0,0,0-1,1L70,62.21a1,1,0,0,0,.29.73L74,66.68a1,1,0,0,0,1,.26l5-1.33a1,1,0,0,0,.71-.71l1.33-5A1,1,0,0,0,81.76,59Z"/><path class="cls-1" d="M56.93,50.85l-.9-.33a1,1,0,0,0-1.19.4L54.17,52a1,1,0,0,0,.71,1.53l1.25.16A1,1,0,0,0,57.2,53l.33-.9A1,1,0,0,0,56.93,50.85Z"/><path class="cls-1" d="M58,45.6l-.25-.93a1,1,0,0,0-1-.74L55.48,44a1,1,0,0,0-.84,1.46l.58,1.12a1,1,0,0,0,1.14.51l.93-.25A1,1,0,0,0,58,45.6Z"/><path class="cls-1" d="M61.91,42.14l.33-.91a1,1,0,0,0-.41-1.18l-1.06-.68a1,1,0,0,0-1.53.71l-.17,1.25a1,1,0,0,0,.65,1.08l.91.33A1,1,0,0,0,61.91,42.14Z"/><path class="cls-1" d="M67.33,42.89l.9-.33a1,1,0,0,0,.65-1.07l-.17-1.26a1,1,0,0,0-1.52-.71l-1.07.68a1,1,0,0,0-.4,1.19l.33.9A1,1,0,0,0,67.33,42.89Z"/><path class="cls-1" d="M70.38,46.86l.93.25a1,1,0,0,0,1.15-.5L73,45.48A1,1,0,0,0,72.2,44L70.94,44a1,1,0,0,0-1,.74l-.25.93A1,1,0,0,0,70.38,46.86Z"/><path class="cls-1" d="M69.8,51.93l.25.94a1,1,0,0,0,1,.74l1.26-.06a1,1,0,0,0,.84-1.46L72.58,51a1,1,0,0,0-1.14-.51l-.93.25A1,1,0,0,0,69.8,51.93Z"/><path class="cls-1" d="M66,55.24l-.33.91A1,1,0,0,0,66,57.33l1.07.68a1,1,0,0,0,1.52-.71l.17-1.25A1,1,0,0,0,68.15,55l-.9-.32A1,1,0,0,0,66,55.24Z"/><path class="cls-1" d="M43.72,18.05H38.43a1,1,0,0,0-.73.3l-4.26,4.46a1,1,0,0,0,0,1.38l4.26,4.46a1,1,0,0,0,.73.3h5.29a1,1,0,0,0,.87-.5L47.16,24a1,1,0,0,0,0-1l-2.57-4.45A1,1,0,0,0,43.72,18.05Z"/><path class="cls-1" d="M20.16,29.5l-.91.33a1,1,0,0,0-.64,1.07l.16,1.25a1,1,0,0,0,1.53.72l1.07-.68a1,1,0,0,0,.4-1.19l-.33-.9A1,1,0,0,0,20.16,29.5Z"/><path class="cls-1" d="M29.81,23.76l-1.62,1.62v2.3a.37.37,0,0,1-.37.36H25.53L23.9,29.66a.35.35,0,0,1-.51,0L21.76,28H19.47a.37.37,0,0,1-.37-.36v-2.3l-1.62-1.62a.37.37,0,0,1,0-.52l1.62-1.62v-2.3a.37.37,0,0,1,.37-.36h2.29l1.63-1.63a.36.36,0,0,1,.51,0L25.53,19h2.29a.37.37,0,0,1,.37.36v2.3l1.62,1.62A.37.37,0,0,1,29.81,23.76Z"/><path class="cls-1" d="M33.83,5.69,30.08,9.43a1.05,1.05,0,0,0-.29.73l.13,6.17a1,1,0,0,0,1,1l6.17.13a1,1,0,0,0,.73-.29l3.74-3.75a1,1,0,0,0,.26-1l-1.33-5a1,1,0,0,0-.71-.71l-5-1.33A1,1,0,0,0,33.83,5.69Z"/><path class="cls-1" d="M18.19,3.57v5.3a1,1,0,0,0,.31.72L23,13.85a1,1,0,0,0,1.39,0l4.45-4.26a1,1,0,0,0,.31-.72V3.57a1,1,0,0,0-.5-.86L24.15.13a1,1,0,0,0-1,0L18.69,2.71A1,1,0,0,0,18.19,3.57Z"/><path class="cls-1" d="M5.62,13.19l3.74,3.74a1,1,0,0,0,.73.29l6.17-.13a1,1,0,0,0,1-1L17.37,10a1,1,0,0,0-.29-.73L13.33,5.47a1,1,0,0,0-1-.25l-5,1.33a1,1,0,0,0-.71.7l-1.33,5A1,1,0,0,0,5.62,13.19Z"/><path class="cls-1" d="M3.57,29h5.3a1,1,0,0,0,.72-.3l4.26-4.46a1,1,0,0,0,0-1.38L9.59,18.35a1,1,0,0,0-.72-.3H3.57a1,1,0,0,0-.86.5L.13,23a1,1,0,0,0,0,1l2.58,4.45A1,1,0,0,0,3.57,29Z"/><path class="cls-1" d="M13.33,41.53l3.75-3.75a1,1,0,0,0,.29-.73l-.13-6.16a1,1,0,0,0-1-1l-6.17-.13a1,1,0,0,0-.73.29L5.62,33.81a1,1,0,0,0-.26,1l1.33,5a1,1,0,0,0,.71.7l5,1.33A1,1,0,0,0,13.33,41.53Z"/><path class="cls-1" d="M29.1,43.43v-5.3a1,1,0,0,0-.31-.72l-4.45-4.26a1,1,0,0,0-1.39,0L18.5,37.41a1,1,0,0,0-.31.72v5.3a1,1,0,0,0,.5.86l4.46,2.58a1,1,0,0,0,1,0l4.45-2.58A1,1,0,0,0,29.1,43.43Z"/><path class="cls-1" d="M41.54,33.68,37.8,29.94a1,1,0,0,0-.73-.3l-6.17.14a1,1,0,0,0-1,1l-.13,6.16a1,1,0,0,0,.29.73l3.75,3.74a1,1,0,0,0,1,.26l5-1.33a1,1,0,0,0,.71-.71l1.33-5A1,1,0,0,0,41.54,33.68Z"/><path class="cls-1" d="M16.72,25.56l-.91-.33a1,1,0,0,0-1.18.41L14,26.7a1,1,0,0,0,.71,1.53l1.25.17A1,1,0,0,0,17,27.75l.32-.91A1,1,0,0,0,16.72,25.56Z"/><path class="cls-1" d="M17.78,20.32l-.24-.93a1,1,0,0,0-1-.74l-1.26.05a1,1,0,0,0-.84,1.46L15,21.28a1,1,0,0,0,1.15.51l.93-.25A1,1,0,0,0,17.78,20.32Z"/><path class="cls-1" d="M21.69,16.85,22,16a1,1,0,0,0-.4-1.19l-1.07-.68A1,1,0,0,0,19,14.8l-.17,1.25a1,1,0,0,0,.65,1.07l.91.33A1,1,0,0,0,21.69,16.85Z"/><path class="cls-1" d="M27.11,17.6l.91-.33a1,1,0,0,0,.64-1.07L28.5,15A1,1,0,0,0,27,14.24l-1.07.67a1,1,0,0,0-.4,1.19l.33.9A1,1,0,0,0,27.11,17.6Z"/><path class="cls-1" d="M30.16,21.58l.93.25a1,1,0,0,0,1.15-.51l.58-1.12A1,1,0,0,0,32,18.74l-1.26-.06a1,1,0,0,0-1,.74l-.25.93A1,1,0,0,0,30.16,21.58Z"/><path class="cls-1" d="M29.58,26.65l.25.93a1,1,0,0,0,1,.74l1.26-.06A1,1,0,0,0,33,26.8l-.59-1.12a1,1,0,0,0-1.14-.51l-.93.25A1,1,0,0,0,29.58,26.65Z"/><path class="cls-1" d="M25.75,30l-.33.9a1,1,0,0,0,.4,1.19l1.07.68A1,1,0,0,0,28.41,32l.17-1.25a1,1,0,0,0-.65-1.07l-.9-.33A1,1,0,0,0,25.75,30Z"/><path class="cls-1" d="M43.72,68.52H38.43a1,1,0,0,0-.73.31l-4.26,4.45a1,1,0,0,0,0,1.39l4.26,4.45a1,1,0,0,0,.73.31h5.29a1,1,0,0,0,.87-.5l2.57-4.45a1,1,0,0,0,0-1L44.59,69A1,1,0,0,0,43.72,68.52Z"/><path class="cls-1" d="M20.16,80l-.91.33a1,1,0,0,0-.64,1.07l.16,1.25a1,1,0,0,0,1.53.71l1.07-.67a1,1,0,0,0,.4-1.19l-.33-.9A1,1,0,0,0,20.16,80Z"/><path class="cls-1" d="M29.81,74.23l-1.62,1.63v2.29a.37.37,0,0,1-.37.37H25.53L23.9,80.14a.36.36,0,0,1-.51,0l-1.63-1.62H19.47a.37.37,0,0,1-.37-.37V75.86l-1.62-1.63a.36.36,0,0,1,0-.51L19.1,72.1V69.8a.38.38,0,0,1,.37-.37h2.29l1.63-1.62a.36.36,0,0,1,.51,0l1.63,1.62h2.29a.38.38,0,0,1,.37.37v2.3l1.62,1.62A.36.36,0,0,1,29.81,74.23Z"/><path class="cls-1" d="M33.83,56.17l-3.75,3.74a1,1,0,0,0-.29.73l.13,6.17a1,1,0,0,0,1,1l6.17.14a1,1,0,0,0,.73-.3l3.74-3.74a1,1,0,0,0,.26-1l-1.33-5a1,1,0,0,0-.71-.71l-5-1.33A1,1,0,0,0,33.83,56.17Z"/><path class="cls-1" d="M18.19,54.05v5.29a1,1,0,0,0,.31.72L23,64.33a1,1,0,0,0,1.39,0l4.45-4.27a1,1,0,0,0,.31-.72V54.05a1,1,0,0,0-.5-.87l-4.45-2.57a1,1,0,0,0-1,0l-4.46,2.57A1,1,0,0,0,18.19,54.05Z"/><path class="cls-1" d="M5.62,63.66l3.74,3.75a1,1,0,0,0,.73.29l6.17-.13a1,1,0,0,0,1-1l.13-6.17a1,1,0,0,0-.29-.73L13.33,56a1,1,0,0,0-1-.26L7.4,57a1.05,1.05,0,0,0-.71.71l-1.33,5A1,1,0,0,0,5.62,63.66Z"/><path class="cls-1" d="M3.57,79.43h5.3a1,1,0,0,0,.72-.31l4.26-4.45a1,1,0,0,0,0-1.39L9.59,68.83a1,1,0,0,0-.72-.31H3.57a1,1,0,0,0-.86.5L.13,73.48a1,1,0,0,0,0,1l2.58,4.45A1,1,0,0,0,3.57,79.43Z"/><path class="cls-1" d="M13.33,92l3.75-3.74a1,1,0,0,0,.29-.73l-.13-6.17a1,1,0,0,0-1-1l-6.17-.14a1,1,0,0,0-.73.3L5.62,84.29a1,1,0,0,0-.26,1l1.33,5a1,1,0,0,0,.71.71l5,1.33A1,1,0,0,0,13.33,92Z"/><path class="cls-1" d="M29.1,93.9V88.61a1,1,0,0,0-.31-.72l-4.45-4.27a1,1,0,0,0-1.39,0L18.5,87.89a1,1,0,0,0-.31.72V93.9a1,1,0,0,0,.5.87l4.46,2.57a1,1,0,0,0,1,0l4.45-2.57A1,1,0,0,0,29.1,93.9Z"/><path class="cls-1" d="M41.54,84.16,37.8,80.41a1.05,1.05,0,0,0-.73-.29l-6.17.13a1,1,0,0,0-1,1l-.13,6.17a1.05,1.05,0,0,0,.29.73l3.75,3.74a1,1,0,0,0,1,.26l5-1.33a1,1,0,0,0,.71-.71l1.33-5A1,1,0,0,0,41.54,84.16Z"/><path class="cls-1" d="M16.72,76l-.91-.33a1,1,0,0,0-1.18.4L14,77.18a1,1,0,0,0,.71,1.53l1.25.16A1,1,0,0,0,17,78.22l.32-.9A1,1,0,0,0,16.72,76Z"/><path class="cls-1" d="M17.78,70.79l-.24-.93a1,1,0,0,0-1-.74l-1.26.06a1,1,0,0,0-.84,1.46L15,71.76a1,1,0,0,0,1.15.51l.93-.25A1,1,0,0,0,17.78,70.79Z"/><path class="cls-1" d="M21.69,67.33l.33-.91a1,1,0,0,0-.4-1.18l-1.07-.68a1,1,0,0,0-1.53.71l-.17,1.26a1,1,0,0,0,.65,1.07l.91.33A1,1,0,0,0,21.69,67.33Z"/><path class="cls-1" d="M27.11,68.08l.91-.33a1,1,0,0,0,.64-1.07l-.16-1.25A1,1,0,0,0,27,64.71l-1.07.68a1,1,0,0,0-.4,1.19l.33.9A1,1,0,0,0,27.11,68.08Z"/><path class="cls-1" d="M30.16,72.05l.93.25a1,1,0,0,0,1.15-.5l.58-1.13A1,1,0,0,0,32,69.22l-1.26-.06a1,1,0,0,0-1,.74l-.25.93A1,1,0,0,0,30.16,72.05Z"/><path class="cls-1" d="M29.58,77.13l.25.93a1,1,0,0,0,1,.74l1.26-.06A1,1,0,0,0,33,77.28l-.59-1.12a1,1,0,0,0-1.14-.51l-.93.25A1,1,0,0,0,29.58,77.13Z"/><path class="cls-1" d="M25.75,80.43l-.33.91a1,1,0,0,0,.4,1.19l1.07.67a1,1,0,0,0,1.52-.71l.17-1.25a1,1,0,0,0-.65-1.07l-.9-.33A1,1,0,0,0,25.75,80.43Z"/><path class="cls-1" d="M124.16,18.05h-5.29a1,1,0,0,0-.72.3l-4.27,4.46a1,1,0,0,0,0,1.38l4.27,4.46a1,1,0,0,0,.72.3h5.29a1,1,0,0,0,.87-.5L127.6,24a1,1,0,0,0,0-1L125,18.55A1,1,0,0,0,124.16,18.05Z"/><path class="cls-1" d="M100.6,29.5l-.9.33a1,1,0,0,0-.65,1.07l.17,1.25a1,1,0,0,0,1.52.72l1.07-.68a1,1,0,0,0,.4-1.19l-.33-.9A1,1,0,0,0,100.6,29.5Z"/><path class="cls-1" d="M110.25,23.76l-1.62,1.62v2.3a.36.36,0,0,1-.36.36H106l-1.63,1.62a.35.35,0,0,1-.51,0L102.21,28h-2.3a.36.36,0,0,1-.36-.36v-2.3l-1.63-1.62a.37.37,0,0,1,0-.52l1.63-1.62v-2.3a.36.36,0,0,1,.36-.36h2.3l1.62-1.63a.36.36,0,0,1,.51,0L106,19h2.3a.36.36,0,0,1,.36.36v2.3l1.62,1.62A.36.36,0,0,1,110.25,23.76Z"/><path class="cls-1" d="M114.27,5.69l-3.74,3.74a1,1,0,0,0-.3.73l.14,6.17a1,1,0,0,0,1,1l6.17.13a1,1,0,0,0,.73-.29L122,13.4a1,1,0,0,0,.26-1l-1.33-5a1,1,0,0,0-.71-.71l-5-1.33A1,1,0,0,0,114.27,5.69Z"/><path class="cls-1" d="M98.63,3.57v5.3a1,1,0,0,0,.31.72l4.46,4.26a1,1,0,0,0,1.38,0l4.45-4.26a1,1,0,0,0,.31-.72V3.57a1,1,0,0,0-.5-.86L104.59.13a1,1,0,0,0-1,0L99.13,2.71A1,1,0,0,0,98.63,3.57Z"/><path class="cls-1" d="M86.06,13.19l3.75,3.74a1,1,0,0,0,.73.29l6.16-.13a1,1,0,0,0,1-1L97.81,10a1,1,0,0,0-.29-.73L93.78,5.47a1,1,0,0,0-1-.25l-5,1.33a1,1,0,0,0-.7.7l-1.33,5A1,1,0,0,0,86.06,13.19Z"/><path class="cls-1" d="M84,29h5.3a1,1,0,0,0,.72-.3l4.27-4.46a1,1,0,0,0,0-1.38L90,18.35a1,1,0,0,0-.72-.3H84a1,1,0,0,0-.86.5L80.58,23a1,1,0,0,0,0,1l2.57,4.45A1,1,0,0,0,84,29Z"/><path class="cls-1" d="M93.78,41.53l3.74-3.75a1,1,0,0,0,.29-.73l-.13-6.16a1,1,0,0,0-1-1l-6.17-.13a1,1,0,0,0-.72.29l-3.75,3.74a1,1,0,0,0-.26,1l1.34,5a1,1,0,0,0,.7.7l5,1.33A1,1,0,0,0,93.78,41.53Z"/><path class="cls-1" d="M109.54,43.43v-5.3a1,1,0,0,0-.31-.72l-4.45-4.26a1,1,0,0,0-1.38,0l-4.46,4.26a1,1,0,0,0-.31.72v5.3a1,1,0,0,0,.5.86l4.46,2.58a1,1,0,0,0,1,0L109,44.29A1,1,0,0,0,109.54,43.43Z"/><path class="cls-1" d="M122,33.68l-3.74-3.74a1,1,0,0,0-.73-.3l-6.17.14a1,1,0,0,0-1,1l-.14,6.16a1,1,0,0,0,.3.73l3.74,3.74a1,1,0,0,0,1,.26l5-1.33a1,1,0,0,0,.71-.71l1.33-5A1,1,0,0,0,122,33.68Z"/><path class="cls-1" d="M97.16,25.56l-.91-.33a1,1,0,0,0-1.18.41l-.68,1.06a1,1,0,0,0,.71,1.53l1.26.17a1,1,0,0,0,1.07-.65l.33-.91A1,1,0,0,0,97.16,25.56Z"/><path class="cls-1" d="M98.23,20.32,98,19.39a1,1,0,0,0-1-.74l-1.27.05a1,1,0,0,0-.84,1.46l.58,1.12a1,1,0,0,0,1.15.51l.93-.25A1,1,0,0,0,98.23,20.32Z"/><path class="cls-1" d="M102.13,16.85l.33-.9a1,1,0,0,0-.4-1.19L101,14.08a1,1,0,0,0-1.53.72l-.16,1.25a1,1,0,0,0,.65,1.07l.9.33A1,1,0,0,0,102.13,16.85Z"/><path class="cls-1" d="M107.55,17.6l.91-.33a1,1,0,0,0,.65-1.07L108.94,15a1,1,0,0,0-1.53-.71l-1.06.67a1,1,0,0,0-.41,1.19l.33.9A1,1,0,0,0,107.55,17.6Z"/><path class="cls-1" d="M110.61,21.58l.93.25a1,1,0,0,0,1.14-.51l.59-1.12a1,1,0,0,0-.85-1.46l-1.26-.06a1,1,0,0,0-1,.74l-.25.93A1,1,0,0,0,110.61,21.58Z"/><path class="cls-1" d="M110,26.65l.25.93a1,1,0,0,0,1,.74l1.27-.06a1,1,0,0,0,.84-1.46l-.58-1.12a1,1,0,0,0-1.15-.51l-.93.25A1,1,0,0,0,110,26.65Z"/><path class="cls-1" d="M106.19,30l-.33.9a1,1,0,0,0,.4,1.19l1.07.68a1,1,0,0,0,1.53-.72l.16-1.25a1,1,0,0,0-.64-1.07l-.91-.33A1,1,0,0,0,106.19,30Z"/><path class="cls-1" d="M124.16,68.52h-5.29a1,1,0,0,0-.72.31l-4.27,4.45a1,1,0,0,0,0,1.39l4.27,4.45a1,1,0,0,0,.72.31h5.29a1,1,0,0,0,.87-.5l2.57-4.45a1,1,0,0,0,0-1L125,69A1,1,0,0,0,124.16,68.52Z"/><path class="cls-1" d="M100.6,80l-.9.33a1,1,0,0,0-.65,1.07l.17,1.25a1,1,0,0,0,1.52.71l1.07-.67a1,1,0,0,0,.4-1.19l-.33-.9A1,1,0,0,0,100.6,80Z"/><path class="cls-1" d="M110.25,74.23l-1.62,1.63v2.29a.36.36,0,0,1-.36.37H106l-1.63,1.62a.36.36,0,0,1-.51,0l-1.62-1.62h-2.3a.36.36,0,0,1-.36-.37V75.86l-1.63-1.63a.36.36,0,0,1,0-.51l1.63-1.62V69.8a.37.37,0,0,1,.36-.37h2.3l1.62-1.62a.36.36,0,0,1,.51,0L106,69.43h2.3a.37.37,0,0,1,.36.37v2.3l1.62,1.62A.35.35,0,0,1,110.25,74.23Z"/><path class="cls-1" d="M114.27,56.17l-3.74,3.74a1,1,0,0,0-.3.73l.14,6.17a1,1,0,0,0,1,1l6.17.14a1,1,0,0,0,.73-.3L122,63.88a1,1,0,0,0,.26-1l-1.33-5a1,1,0,0,0-.71-.71l-5-1.33A1,1,0,0,0,114.27,56.17Z"/><path class="cls-1" d="M98.63,54.05v5.29a1,1,0,0,0,.31.72l4.46,4.27a1,1,0,0,0,1.38,0l4.45-4.27a1,1,0,0,0,.31-.72V54.05a1,1,0,0,0-.5-.87l-4.45-2.57a1,1,0,0,0-1,0l-4.46,2.57A1,1,0,0,0,98.63,54.05Z"/><path class="cls-1" d="M86.06,63.66l3.75,3.75a1,1,0,0,0,.73.29l6.16-.13a1,1,0,0,0,1-1l.13-6.17a1,1,0,0,0-.29-.73L93.78,56a1,1,0,0,0-1-.26l-5,1.33a1,1,0,0,0-.7.71l-1.33,5A1,1,0,0,0,86.06,63.66Z"/><path class="cls-1" d="M84,79.43h5.3a1,1,0,0,0,.72-.31l4.27-4.45a1,1,0,0,0,0-1.39L90,68.83a1,1,0,0,0-.72-.31H84a1,1,0,0,0-.86.5l-2.57,4.46a1,1,0,0,0,0,1l2.57,4.45A1,1,0,0,0,84,79.43Z"/><path class="cls-1" d="M93.78,92l3.74-3.74a1,1,0,0,0,.29-.73l-.13-6.17a1,1,0,0,0-1-1l-6.17-.14a1,1,0,0,0-.72.3l-3.75,3.74a1,1,0,0,0-.26,1l1.34,5a1,1,0,0,0,.7.71l5,1.33A1,1,0,0,0,93.78,92Z"/><path class="cls-1" d="M109.54,93.9V88.61a1,1,0,0,0-.31-.72l-4.45-4.27a1,1,0,0,0-1.38,0l-4.46,4.27a1,1,0,0,0-.31.72V93.9a1,1,0,0,0,.5.87l4.46,2.57a1,1,0,0,0,1,0L109,94.77A1,1,0,0,0,109.54,93.9Z"/><path class="cls-1" d="M122,84.16l-3.74-3.75a1,1,0,0,0-.73-.29l-6.17.13a1,1,0,0,0-1,1l-.14,6.17a1,1,0,0,0,.3.73l3.74,3.74a1,1,0,0,0,1,.26l5-1.33a1,1,0,0,0,.71-.71l1.33-5A1,1,0,0,0,122,84.16Z"/><path class="cls-1" d="M97.16,76l-.91-.33a1,1,0,0,0-1.18.4l-.68,1.07a1,1,0,0,0,.71,1.53l1.26.16a1,1,0,0,0,1.07-.65l.33-.9A1,1,0,0,0,97.16,76Z"/><path class="cls-1" d="M98.23,70.79,98,69.86a1,1,0,0,0-1-.74l-1.27.06a1,1,0,0,0-.84,1.46l.58,1.12a1,1,0,0,0,1.15.51l.93-.25A1,1,0,0,0,98.23,70.79Z"/><path class="cls-1" d="M102.13,67.33l.33-.91a1,1,0,0,0-.4-1.18L101,64.56a1,1,0,0,0-1.53.71l-.16,1.26A1,1,0,0,0,100,67.6l.9.33A1,1,0,0,0,102.13,67.33Z"/><path class="cls-1" d="M107.55,68.08l.91-.33a1,1,0,0,0,.65-1.07l-.17-1.25a1,1,0,0,0-1.53-.72l-1.06.68a1,1,0,0,0-.41,1.19l.33.9A1,1,0,0,0,107.55,68.08Z"/><path class="cls-1" d="M110.61,72.05l.93.25a1,1,0,0,0,1.14-.5l.59-1.13a1,1,0,0,0-.85-1.45l-1.26-.06a1,1,0,0,0-1,.74l-.25.93A1,1,0,0,0,110.61,72.05Z"/><path class="cls-1" d="M110,77.13l.25.93a1,1,0,0,0,1,.74l1.27-.06a1,1,0,0,0,.84-1.46l-.58-1.12a1,1,0,0,0-1.15-.51l-.93.25A1,1,0,0,0,110,77.13Z"/><path class="cls-1" d="M106.19,80.43l-.33.91a1,1,0,0,0,.4,1.19l1.07.67a1,1,0,0,0,1.53-.71l.16-1.25a1,1,0,0,0-.64-1.07l-.91-.33A1,1,0,0,0,106.19,80.43Z"/><path class="cls-1" d="M164.39,43.05h-5.3a1,1,0,0,0-.72.3l-4.26,4.46a1,1,0,0,0,0,1.38l4.26,4.46a1,1,0,0,0,.72.3h5.3a1,1,0,0,0,.86-.5L167.83,49a1,1,0,0,0,0-1l-2.58-4.45A1,1,0,0,0,164.39,43.05Z"/><path class="cls-1" d="M140.83,54.5l-.91.33a1,1,0,0,0-.65,1.07l.17,1.25a1,1,0,0,0,1.53.72l1.07-.68a1,1,0,0,0,.4-1.19l-.33-.9A1,1,0,0,0,140.83,54.5Z"/><path class="cls-1" d="M150.48,48.76l-1.62,1.62v2.3a.37.37,0,0,1-.37.36h-2.3l-1.62,1.62a.35.35,0,0,1-.51,0L142.43,53h-2.29a.36.36,0,0,1-.37-.36v-2.3l-1.62-1.62a.37.37,0,0,1,0-.52l1.62-1.62v-2.3a.36.36,0,0,1,.37-.36h2.29l1.63-1.63a.36.36,0,0,1,.51,0L146.19,44h2.3a.37.37,0,0,1,.37.36v2.3l1.62,1.62A.37.37,0,0,1,150.48,48.76Z"/><path class="cls-1" d="M154.5,30.69l-3.75,3.74a1,1,0,0,0-.29.73l.13,6.17a1,1,0,0,0,1,1l6.17.13a1,1,0,0,0,.73-.29l3.74-3.75a1,1,0,0,0,.26-1l-1.33-5a1,1,0,0,0-.71-.71l-5-1.33A1,1,0,0,0,154.5,30.69Z"/><path class="cls-1" d="M138.86,28.57v5.3a1,1,0,0,0,.31.72l4.45,4.26a1,1,0,0,0,1.39,0l4.45-4.26a1,1,0,0,0,.31-.72v-5.3a1,1,0,0,0-.5-.86l-4.46-2.58a1,1,0,0,0-1,0l-4.45,2.58A1,1,0,0,0,138.86,28.57Z"/><path class="cls-1" d="M126.29,38.19,130,41.93a1,1,0,0,0,.73.29l6.17-.13a1,1,0,0,0,1-1L138,35a1,1,0,0,0-.29-.73L134,30.47a1,1,0,0,0-1-.25l-5,1.33a1,1,0,0,0-.71.7l-1.33,5A1,1,0,0,0,126.29,38.19Z"/><path class="cls-1" d="M124.24,54h5.29a1,1,0,0,0,.73-.3l4.26-4.46a1,1,0,0,0,0-1.38l-4.26-4.46a1,1,0,0,0-.73-.3h-5.29a1,1,0,0,0-.87.5L120.8,48a1,1,0,0,0,0,1l2.57,4.45A1,1,0,0,0,124.24,54Z"/><path class="cls-1" d="M134,66.53l3.75-3.75a1,1,0,0,0,.29-.73l-.13-6.16a1,1,0,0,0-1-1l-6.17-.13a1,1,0,0,0-.73.29l-3.74,3.74a1,1,0,0,0-.26,1l1.33,5a1,1,0,0,0,.71.7l5,1.33A1,1,0,0,0,134,66.53Z"/><path class="cls-1" d="M149.77,68.43v-5.3a1,1,0,0,0-.31-.72L145,58.15a1,1,0,0,0-1.39,0l-4.45,4.26a1,1,0,0,0-.31.72v5.3a1,1,0,0,0,.5.86l4.45,2.58a1,1,0,0,0,1,0l4.46-2.58A1,1,0,0,0,149.77,68.43Z"/><path class="cls-1" d="M162.21,58.68l-3.74-3.74a1,1,0,0,0-.73-.3l-6.17.14a1,1,0,0,0-1,1l-.13,6.16a1,1,0,0,0,.29.73l3.75,3.74a1,1,0,0,0,1,.26l5-1.33a1,1,0,0,0,.71-.71l1.33-5A1,1,0,0,0,162.21,58.68Z"/><path class="cls-1" d="M137.39,50.56l-.91-.33a1,1,0,0,0-1.19.41l-.67,1.06a1,1,0,0,0,.71,1.53l1.25.17a1,1,0,0,0,1.07-.65l.33-.91A1,1,0,0,0,137.39,50.56Z"/><path class="cls-1" d="M138.45,45.32l-.25-.93a1,1,0,0,0-1-.74l-1.26.05a1,1,0,0,0-.84,1.46l.58,1.12a1,1,0,0,0,1.15.51l.93-.25A1,1,0,0,0,138.45,45.32Z"/><path class="cls-1" d="M142.36,41.85l.33-.9a1,1,0,0,0-.41-1.19l-1.06-.68a1,1,0,0,0-1.53.72l-.17,1.25a1,1,0,0,0,.65,1.07l.91.33A1,1,0,0,0,142.36,41.85Z"/><path class="cls-1" d="M147.78,42.6l.9-.33a1,1,0,0,0,.65-1.07L149.17,40a1,1,0,0,0-1.53-.71l-1.07.67a1,1,0,0,0-.4,1.19l.33.9A1,1,0,0,0,147.78,42.6Z"/><path class="cls-1" d="M150.83,46.58l.93.25a1,1,0,0,0,1.15-.51l.58-1.12a1,1,0,0,0-.84-1.46l-1.26-.06a1,1,0,0,0-1,.74l-.25.93A1,1,0,0,0,150.83,46.58Z"/><path class="cls-1" d="M150.25,51.65l.25.93a1,1,0,0,0,1,.74l1.26-.06a1,1,0,0,0,.84-1.46L153,50.68a1,1,0,0,0-1.14-.51l-.93.25A1,1,0,0,0,150.25,51.65Z"/><path class="cls-1" d="M146.41,55l-.32.9a1,1,0,0,0,.4,1.19l1.07.68a1,1,0,0,0,1.52-.72l.17-1.25a1,1,0,0,0-.65-1.07l-.9-.33A1,1,0,0,0,146.41,55Z"/></g></g></svg>