<?xml version="1.0" encoding="utf-8"?>
<!-- Generator: Adobe Illustrator 25.2.0, SVG Export Plug-In . SVG Version: 6.00 Build 0)  -->
<svg version="1.1" id="Layer_1" xmlns="http://www.w3.org/2000/svg" xmlns:xlink="http://www.w3.org/1999/xlink" x="0px" y="0px"
	 viewBox="0 0 110 50" style="enable-background:new 0 0 110 50;" xml:space="preserve">
<style type="text/css">
	.st0{fill:#65C8D0;}
</style>
<path class="st0" d="M45.3,19.2l-5.5,0c-0.3,0-0.5,0.1-0.7,0.3l-4.5,4.8c-0.4,0.4-0.4,1,0,1.4l4.5,4.8c0.2,0.2,0.5,0.3,0.7,0.3
	l5.5,0c0.4,0,0.7-0.2,0.9-0.5l2.7-4.8c0.2-0.3,0.2-0.7,0-1l-2.7-4.8C46,19.4,45.7,19.2,45.3,19.2z"/>
<path class="st0" d="M21.1,31.4l-1.4,0.5c-0.3,0.1-0.5,0.5-0.5,0.8l0.3,2c0.1,0.6,0.7,0.9,1.2,0.6l1.6-1.1c0.3-0.2,0.4-0.6,0.3-0.9
	l-0.5-1.4C22,31.4,21.5,31.2,21.1,31.4z"/>
<path class="st0" d="M30.9,25.3l-1.7,1.7v2.4c0,0.2-0.2,0.4-0.4,0.4h-2.4l-1.7,1.7c-0.1,0.2-0.4,0.2-0.5,0l-1.7-1.7h-2.4
	c-0.2,0-0.4-0.2-0.4-0.4v-2.4l-1.7-1.7c-0.1-0.2-0.1-0.4,0-0.5l1.7-1.7v-2.5c0-0.2,0.2-0.4,0.4-0.4h2.4l1.7-1.7
	c0.1-0.2,0.4-0.2,0.5,0l1.7,1.7h2.4c0.2,0,0.4,0.2,0.4,0.4v2.5l1.7,1.7C31,24.9,31,25.2,30.9,25.3z"/>
<path class="st0" d="M35.1,6.1l-3.9,4c-0.2,0.2-0.3,0.5-0.3,0.7l0.1,6.7c0,0.5,0.4,1,1,1l6.4,0.1c0.3,0,0.5-0.1,0.7-0.3l3.9-4
	c0.2-0.3,0.3-0.6,0.3-0.9l-1.4-5.4c-0.1-0.3-0.4-0.6-0.7-0.7l-5.2-1.4C35.7,5.7,35.3,5.8,35.1,6.1z"/>
<path class="st0" d="M18.8,3.8l0,5.7c0,0.3,0.1,0.5,0.3,0.7l4.7,4.6c0.4,0.4,1,0.4,1.4,0l4.7-4.6c0.2-0.2,0.3-0.4,0.3-0.7l0-5.7
	c0-0.4-0.2-0.7-0.5-0.9L25,0.1c-0.3-0.2-0.7-0.2-1,0l-4.7,2.8C19,3.1,18.8,3.4,18.8,3.8z"/>
<path class="st0" d="M5.8,14l3.9,4c0.2,0.2,0.5,0.3,0.7,0.3l6.4-0.1c0.5,0,1-0.4,1-1l0.1-6.7c0-0.3-0.1-0.5-0.3-0.7l-3.9-4
	c-0.3-0.3-0.6-0.4-1-0.3L7.6,7C7.3,7.1,7,7.3,6.9,7.7l-1.4,5.4C5.4,13.4,5.5,13.8,5.8,14z"/>
<path class="st0" d="M3.7,30.9l5.5,0c0.3,0,0.5-0.1,0.7-0.3l4.5-4.8c0.4-0.4,0.4-1,0-1.4l-4.5-4.8c-0.2-0.2-0.5-0.3-0.7-0.3l-5.5,0
	c-0.4,0-0.7,0.2-0.9,0.5l-2.7,4.8c-0.2,0.3-0.2,0.7,0,1l2.7,4.8C3,30.7,3.3,30.9,3.7,30.9z"/>
<path class="st0" d="M13.8,44.3l3.9-4c0.2-0.2,0.3-0.5,0.3-0.7l-0.1-6.7c0-0.5-0.4-1-1-1l-6.4-0.1c-0.3,0-0.5,0.1-0.7,0.3l-3.9,4
	c-0.2,0.3-0.3,0.6-0.3,0.9l1.4,5.4C7,42.8,7.3,43,7.6,43.1l5.2,1.4C13.2,44.7,13.5,44.6,13.8,44.3z"/>
<path class="st0" d="M30.2,46.4l0-5.7c0-0.3-0.1-0.5-0.3-0.7l-4.7-4.6c-0.4-0.4-1-0.4-1.4,0l-4.7,4.6c-0.2,0.2-0.3,0.4-0.3,0.7
	l0,5.7c0,0.4,0.2,0.7,0.5,0.9L24,50c0.3,0.2,0.7,0.2,1,0l4.7-2.8C30,47,30.2,46.7,30.2,46.4z"/>
<path class="st0" d="M43.1,36l-3.9-4c-0.2-0.2-0.5-0.3-0.7-0.3L32,31.8c-0.5,0-1,0.4-1,1l-0.1,6.7c0,0.3,0.1,0.5,0.3,0.7l3.9,4
	c0.3,0.3,0.6,0.4,1,0.3l5.2-1.4c0.3-0.1,0.6-0.4,0.7-0.7l1.4-5.4C43.4,36.6,43.3,36.2,43.1,36z"/>
<path class="st0" d="M17.6,27.4l-1.4-0.5c-0.4-0.1-0.7,0-0.9,0.3l-1,1.7c-0.3,0.5,0,1.1,0.6,1.2l1.9,0.3c0.4,0.1,0.7-0.2,0.8-0.5
	l0.5-1.4C18.2,27.9,18,27.5,17.6,27.4z"/>
<path class="st0" d="M18.5,21.9l-0.4-1.5c-0.1-0.4-0.4-0.6-0.8-0.6L15.4,20c-0.6,0-0.9,0.6-0.7,1.1l0.9,1.8c0.2,0.3,0.5,0.5,0.9,0.4
	l1.4-0.4C18.3,22.8,18.6,22.4,18.5,21.9z"/>
<path class="st0" d="M22.4,18.2l0.5-1.4c0.1-0.3,0-0.7-0.3-0.9L21,14.8c-0.5-0.3-1.1,0-1.2,0.6l-0.3,2c0,0.4,0.2,0.7,0.5,0.8
	l1.4,0.5C21.8,18.8,22.2,18.6,22.4,18.2z"/>
<path class="st0" d="M27.9,18.9l1.4-0.5c0.3-0.1,0.5-0.5,0.5-0.8l-0.3-2c-0.1-0.6-0.7-0.9-1.2-0.6L26.6,16c-0.3,0.2-0.4,0.6-0.3,0.9
	l0.5,1.4C27,18.8,27.4,19,27.9,18.9z"/>
<path class="st0" d="M31,22.9l1.4,0.4c0.4,0.1,0.7-0.1,0.9-0.4l0.9-1.8c0.3-0.5-0.1-1.1-0.7-1.1l-1.9-0.1c-0.4,0-0.7,0.2-0.8,0.6
	L30.4,22C30.3,22.4,30.6,22.8,31,22.9z"/>
<path class="st0" d="M30.6,28.1l0.4,1.5c0.1,0.4,0.4,0.6,0.8,0.6l1.9-0.1c0.6,0,0.9-0.6,0.7-1.1l-0.9-1.8c-0.2-0.3-0.5-0.5-0.9-0.4
	l-1.4,0.4C30.7,27.3,30.5,27.7,30.6,28.1z"/>
<path class="st0" d="M26.8,31.7l-0.5,1.4c-0.1,0.3,0,0.7,0.3,0.9l1.6,1.1c0.5,0.3,1.1,0,1.2-0.6l0.3-2c0-0.4-0.2-0.7-0.5-0.8
	l-1.4-0.5C27.4,31.1,26.9,31.3,26.8,31.7z"/>
</svg>
