<?xml version="1.0" encoding="utf-8"?>
<!-- Generator: Adobe Illustrator 25.2.0, SVG Export Plug-In . SVG Version: 6.00 Build 0)  -->
<svg version="1.1" id="Layer_1" xmlns="http://www.w3.org/2000/svg" xmlns:xlink="http://www.w3.org/1999/xlink" x="0px" y="0px"
	 viewBox="0 0 100 100" style="enable-background:new 0 0 100 100;" xml:space="preserve">
<style type="text/css">
	.st0{fill:#65C8D0;}
</style>
<g>
	<polygon class="st0" points="41.3,16.5 41.3,26.6 50,37.2 58.7,26.6 58.7,16.5 50,11.5 	"/>
	<polygon class="st0" points="83,41.2 72.9,41.2 62.3,49.9 72.9,58.6 83,58.6 88,49.9 	"/>
	<polygon class="st0" points="67.4,19.9 60.3,27 58.9,40.7 72.6,39.3 79.7,32.2 77.1,22.5 	"/>
	<polygon class="st0" points="20.1,32.2 27.2,39.3 40.9,40.7 39.6,27 32.5,19.9 22.7,22.5 	"/>
	<polygon class="st0" points="17.4,58.8 27.5,58.8 38.1,50.1 27.5,41.4 17.4,41.4 12.4,50.1 	"/>
	<polygon class="st0" points="32.7,80.3 39.8,73.2 41.2,59.5 27.5,60.8 20.4,67.9 23,77.7 	"/>
	<polygon class="st0" points="58.6,83.3 58.6,73.3 49.9,62.6 41.2,73.3 41.2,83.3 49.9,88.4 	"/>
	<polygon class="st0" points="79.7,67.6 72.6,60.5 58.9,59.2 60.3,72.8 67.4,80 77.1,77.3 	"/>
	<polygon class="st0" points="40.1,42.9 34.9,42.9 37.7,47.3 41.1,46.3 	"/>
	<polygon class="st0" points="47.6,37.1 43.4,34 43,39.2 46.3,40.4 	"/>
	<polygon class="st0" points="57.6,39.5 57.3,34.3 53,37.4 54.3,40.7 	"/>
	<polygon class="st0" points="62.3,47.3 65.1,42.9 59.9,42.9 58.9,46.3 	"/>
	<polygon class="st0" points="60.2,57.3 65.4,57.3 62.6,52.9 59.2,53.9 	"/>
	<polygon class="st0" points="53,62.4 56.9,65.9 57.7,60.7 54.5,59.2 	"/>
	<polygon class="st0" points="42.1,60.9 42.8,66.1 46.8,62.8 45.4,59.5 	"/>
	<polygon class="st0" points="37.1,52.9 34,57.1 39.2,57.5 40.4,54.2 	"/>
	<rect x="42.7" y="42.8" class="st0" width="14.3" height="14.3"/>
	
		<rect x="42.7" y="42.9" transform="matrix(0.7071 -0.7071 0.7071 0.7071 -20.8105 49.9236)" class="st0" width="14.3" height="14.3"/>
</g>
</svg>
