<?xml version="1.0" encoding="utf-8"?>
<!-- Generator: Adobe Illustrator 25.2.0, SVG Export Plug-In . SVG Version: 6.00 Build 0)  -->
<svg version="1.1" xmlns="http://www.w3.org/2000/svg" xmlns:xlink="http://www.w3.org/1999/xlink" x="0px" y="0px"
	 viewBox="0 0 100 100" style="enable-background:new 0 0 100 100;" xml:space="preserve">
<style type="text/css">
	.st0{fill:#CE0F66;}
	.st1{fill:#65C8D0;}
</style>
<g id="Layer_2">
	<path class="st0" d="M81.9,41h-8.4c-0.5,0-0.8,0.2-1.1,0.5l-6.9,7.4c-0.6,0.6-0.6,1.5,0,2.1l6.9,7.4c0.3,0.3,0.8,0.5,1.1,0.5h8.4
		c0.6,0,1.1-0.3,1.4-0.8l4.1-7.4c0.3-0.5,0.3-1.1,0-1.5l-4.1-7.4C83,41.3,82.5,41,81.9,41z"/>
	<path class="st0" d="M44.8,59.7l-2.1,0.8c-0.5,0.2-0.8,0.8-0.8,1.2l0.5,3.1c0.2,0.9,1.1,1.4,1.8,0.9l2.5-1.7
		c0.5-0.3,0.6-0.9,0.5-1.4l-0.8-2.1C46.2,59.7,45.4,59.4,44.8,59.7z"/>
	<path class="st0" d="M59.8,50.4L57.2,53v3.7c0,0.3-0.3,0.6-0.6,0.6h-3.7l-2.6,2.6c-0.2,0.3-0.6,0.3-0.8,0l-2.6-2.6h-3.7
		c-0.3,0-0.6-0.3-0.6-0.6V53L40,50.4c-0.2-0.3-0.2-0.6,0-0.8l2.6-2.6v-3.8c0-0.3,0.3-0.6,0.6-0.6h3.7l2.6-2.6c0.2-0.3,0.6-0.3,0.8,0
		l2.6,2.6h3.7c0.3,0,0.6,0.3,0.6,0.6V47l2.6,2.6C60,49.8,60,50.2,59.8,50.4z"/>
	<path class="st0" d="M66.3,20.9l-6,6.1c-0.3,0.3-0.5,0.8-0.5,1.1L60,38.4c0,0.8,0.6,1.5,1.5,1.5l9.8,0.2c0.5,0,0.8-0.2,1.1-0.5
		l6-6.1c0.3-0.5,0.5-0.9,0.5-1.4l-2.1-8.3c-0.2-0.5-0.6-0.9-1.1-1.1l-8-2.1C67.2,20.3,66.6,20.5,66.3,20.9z"/>
	<path class="st0" d="M41.3,17.4v8.7c0,0.5,0.2,0.8,0.5,1.1l7.2,7.1c0.6,0.6,1.5,0.6,2.1,0l7.2-7.1c0.3-0.3,0.5-0.6,0.5-1.1v-8.7
		c0-0.6-0.3-1.1-0.8-1.4l-7.2-4.3c-0.5-0.3-1.1-0.3-1.5,0L42,16C41.6,16.3,41.3,16.8,41.3,17.4z"/>
	<path class="st0" d="M21.3,33.1l6,6.1c0.3,0.3,0.8,0.5,1.1,0.5l9.8-0.2c0.8,0,1.5-0.6,1.5-1.5l0.2-10.3c0-0.5-0.2-0.8-0.5-1.1
		l-6-6.1C33,20,32.5,19.9,31.9,20l-7.8,2.3c-0.5,0.2-0.9,0.5-1.1,1.1l-2.1,8.3C20.7,32.1,20.9,32.7,21.3,33.1z"/>
	<path class="st0" d="M18.1,59h8.4c0.5,0,0.8-0.2,1.1-0.5l6.9-7.4c0.6-0.6,0.6-1.5,0-2.1l-6.9-7.4c-0.3-0.3-0.8-0.5-1.1-0.5h-8.4
		c-0.6,0-1.1,0.3-1.4,0.8l-4.1,7.4c-0.3,0.5-0.3,1.1,0,1.5l4.1,7.4C17,58.7,17.5,59,18.1,59z"/>
	<path class="st0" d="M33.6,79.5l6-6.1c0.3-0.3,0.5-0.8,0.5-1.1L39.9,62c0-0.8-0.6-1.5-1.5-1.5l-9.8-0.2c-0.5,0-0.8,0.2-1.1,0.5
		l-6,6.1c-0.3,0.5-0.5,0.9-0.5,1.4l2.1,8.3c0,0.6,0.5,0.9,0.9,1.1l8,2.1C32.7,80.1,33.1,80,33.6,79.5z"/>
	<path class="st0" d="M58.7,82.7V74c0-0.5-0.2-0.8-0.5-1.1l-7.2-7.1c-0.6-0.6-1.5-0.6-2.1,0l-7.2,7.1c-0.3,0.3-0.5,0.6-0.5,1.1v8.7
		c0,0.6,0.3,1.1,0.8,1.4l7.2,4.1c0.5,0.3,1.1,0.3,1.5,0L58,84C58.4,83.7,58.7,83.2,58.7,82.7z"/>
	<path class="st0" d="M78.5,66.8l-6-6.1c-0.3-0.3-0.8-0.5-1.1-0.5l-10,0.2c-0.8,0-1.5,0.6-1.5,1.5l-0.2,10.3c0,0.5,0.2,0.8,0.5,1.1
		l6,6.1c0.5,0.5,0.9,0.6,1.5,0.5l8-2.1c0.5-0.2,0.9-0.6,1.1-1.1l2.1-8.3C79,67.7,78.8,67.1,78.5,66.8z"/>
	<path class="st0" d="M39.4,53.6l-2.1-0.8c-0.6-0.2-1.1,0-1.4,0.5l-1.5,2.6c-0.5,0.8,0,1.7,0.9,1.8l2.9,0.5c0.6,0.2,1.1-0.3,1.2-0.8
		l0.8-2.1C40.3,54.4,40,53.8,39.4,53.6z"/>
	<path class="st0" d="M40.8,45.2l-0.6-2.3c-0.2-0.6-0.6-0.9-1.2-0.9L36,42.3c-0.9,0-1.4,0.9-1.1,1.7l1.4,2.8
		c0.3,0.5,0.8,0.8,1.4,0.6l2.1-0.6C40.5,46.5,41,45.9,40.8,45.2z"/>
	<path class="st0" d="M46.8,39.5l0.8-2.1c0.2-0.5,0-1.1-0.5-1.4l-2.5-1.7c-0.8-0.5-1.7,0-1.8,0.9l-0.5,3.1c0,0.6,0.3,1.1,0.8,1.2
		l2.1,0.8C45.9,40.4,46.5,40.1,46.8,39.5z"/>
	<path class="st0" d="M55.2,40.6l2.1-0.8c0.5-0.2,0.8-0.8,0.8-1.2l-0.5-3.1c-0.2-0.9-1.1-1.4-1.8-0.9l-2.6,1.5
		c-0.5,0.3-0.6,0.9-0.5,1.4l0.8,2.1C53.8,40.4,54.4,40.7,55.2,40.6z"/>
	<path class="st0" d="M60,46.7l2.1,0.6c0.6,0.2,1.1-0.2,1.4-0.6l1.4-2.8c0.5-0.8-0.2-1.7-1.1-1.7l-2.9-0.2c-0.6,0-1.1,0.3-1.2,0.9
		L59,45.3C58.9,45.9,59.4,46.5,60,46.7z"/>
	<path class="st0" d="M59.4,54.7L60,57c0.2,0.6,0.6,0.9,1.2,0.9l2.9-0.2c0.9,0,1.4-0.9,1.1-1.7l-1.4-2.8c-0.3-0.5-0.8-0.8-1.4-0.6
		l-2.1,0.6C59.5,53.5,59.2,54.1,59.4,54.7z"/>
	<path class="st0" d="M53.5,60.2l-0.8,2.1c-0.2,0.5,0,1.1,0.5,1.4l2.5,1.7c0.8,0.5,1.7,0,1.8-0.9l0.5-3.1c0-0.6-0.3-1.1-0.8-1.2
		l-2.1-0.8C54.4,59.3,53.7,59.6,53.5,60.2z"/>
</g>
<g id="Layer_1">
	<polygon class="st1" points="41.3,16.5 41.3,26.6 50,37.2 58.7,26.6 58.7,16.5 50,11.5 	"/>
	<polygon class="st1" points="83,41.2 72.9,41.2 62.3,49.9 72.9,58.6 83,58.6 88,49.9 	"/>
	<polygon class="st1" points="67.4,19.9 60.3,27 58.9,40.7 72.6,39.3 79.7,32.2 77.1,22.5 	"/>
	<polygon class="st1" points="20.1,32.2 27.2,39.3 40.9,40.7 39.6,27 32.5,19.9 22.7,22.5 	"/>
	<polygon class="st1" points="17.4,58.8 27.5,58.8 38.1,50.1 27.5,41.4 17.4,41.4 12.4,50.1 	"/>
	<polygon class="st1" points="32.7,80.3 39.8,73.2 41.2,59.5 27.5,60.8 20.4,67.9 23,77.7 	"/>
	<polygon class="st1" points="58.6,83.3 58.6,73.3 49.9,62.6 41.2,73.3 41.2,83.3 49.9,88.4 	"/>
	<polygon class="st1" points="79.7,67.6 72.6,60.5 58.9,59.2 60.3,72.8 67.4,80 77.1,77.3 	"/>
	<polygon class="st1" points="40.1,42.9 34.9,42.9 37.7,47.3 41.1,46.3 	"/>
</g>
</svg>
