<?xml version="1.0" encoding="utf-8"?>
<!-- Generator: Adobe Illustrator 25.2.0, SVG Export Plug-In . SVG Version: 6.00 Build 0)  -->
<svg version="1.1" id="Layer_1" xmlns="http://www.w3.org/2000/svg" xmlns:xlink="http://www.w3.org/1999/xlink" x="0px" y="0px"
	 viewBox="0 0 50 50" style="enable-background:new 0 0 50 50;" xml:space="preserve">
<style type="text/css">
	.st0{fill:#65C8D0;}
</style>
<path class="st0" d="M35.4,22h-2.2c-0.3,0-0.5,0.1-0.7,0.3l-1.7,1.8c-0.4,0.4-0.4,1,0,1.4l1.7,1.8c0.2,0.2,0.4,0.3,0.7,0.3l2.2,0
	c0.4,0,0.7-0.2,0.9-0.5l1-1.8c0.2-0.3,0.2-0.7,0-1l-1-1.8C36.1,22.2,35.8,22,35.4,22z"/>
<path class="st0" d="M23.5,27.9L23.5,27.9c-0.3,0.1-0.6,0.5-0.5,0.8v0c0.1,0.6,0.7,0.9,1.2,0.6l0,0c0.3-0.2,0.4-0.6,0.3-0.9v0
	C24.3,28,23.9,27.8,23.5,27.9z"/>
<path class="st0" d="M28.6,24.9l-0.8,0.8v1.2c0,0.1-0.1,0.2-0.2,0.2h-1.2l-0.8,0.8c-0.1,0.1-0.2,0.1-0.3,0l-0.8-0.8h-1.2
	c-0.1,0-0.2-0.1-0.2-0.2v-1.2l-0.8-0.8c-0.1-0.1-0.1-0.2,0-0.3l0.8-0.8v-1.2c0-0.1,0.1-0.2,0.2-0.2h1.2l0.8-0.8
	c0.1-0.1,0.2-0.1,0.3,0l0.8,0.8h1.2c0.1,0,0.2,0.1,0.2,0.2v1.2l0.8,0.8C28.7,24.7,28.7,24.8,28.6,24.9z"/>
<path class="st0" d="M30.5,15.9l-1.6,1.6c-0.2,0.2-0.3,0.5-0.3,0.7l0.1,2.5c0,0.5,0.4,1,1,1l2.5,0.1c0.3,0,0.5-0.1,0.7-0.3l1.6-1.6
	c0.3-0.3,0.4-0.6,0.3-1l-0.5-2c-0.1-0.3-0.4-0.6-0.7-0.7l-2-0.5C31.1,15.5,30.7,15.6,30.5,15.9z"/>
<path class="st0" d="M22.7,14.9v2.2c0,0.3,0.1,0.5,0.3,0.7l1.8,1.7c0.4,0.4,1,0.4,1.4,0l1.8-1.7c0.2-0.2,0.3-0.4,0.3-0.7v-2.2
	c0-0.4-0.2-0.7-0.5-0.9L26,13c-0.3-0.2-0.7-0.2-1,0l-1.8,1C22.9,14.2,22.7,14.5,22.7,14.9z"/>
<path class="st0" d="M16.5,19.7l1.6,1.6c0.2,0.2,0.5,0.3,0.7,0.3l2.5-0.1c0.5,0,1-0.4,1-1l0.1-2.5c0-0.3-0.1-0.5-0.3-0.7l-1.6-1.6
	c-0.3-0.3-0.6-0.4-1-0.3l-2,0.5c-0.3,0.1-0.6,0.4-0.7,0.7l-0.5,2C16.1,19.1,16.2,19.5,16.5,19.7z"/>
<path class="st0" d="M15.5,27.6l2.2,0c0.3,0,0.5-0.1,0.7-0.3l1.7-1.8c0.4-0.4,0.4-1,0-1.4l-1.7-1.8C18.3,22.1,18,22,17.7,22h-2.2
	c-0.4,0-0.7,0.2-0.9,0.5l-1,1.8c-0.2,0.3-0.2,0.7,0,1l1,1.8C14.8,27.4,15.2,27.6,15.5,27.6z"/>
<path class="st0" d="M20.4,33.8l1.6-1.6c0.2-0.2,0.3-0.5,0.3-0.7L22.2,29c0-0.5-0.4-1-1-1L18.8,28c-0.3,0-0.5,0.1-0.7,0.3l-1.6,1.6
	c-0.3,0.3-0.4,0.6-0.3,1l0.5,2c0.1,0.3,0.4,0.6,0.7,0.7l2,0.5C19.8,34.1,20.2,34,20.4,33.8z"/>
<path class="st0" d="M28.3,34.7v-2.2c0-0.3-0.1-0.5-0.3-0.7L26.2,30c-0.4-0.4-1-0.4-1.4,0L23,31.7c-0.2,0.2-0.3,0.4-0.3,0.7v2.2
	c0,0.4,0.2,0.7,0.5,0.9l1.8,1c0.3,0.2,0.7,0.2,1,0l1.8-1C28.1,35.4,28.3,35,28.3,34.7z"/>
<path class="st0" d="M34.4,29.8l-1.6-1.6c-0.2-0.2-0.5-0.3-0.7-0.3L29.7,28c-0.5,0-1,0.4-1,1l-0.1,2.5c0,0.3,0.1,0.5,0.3,0.7
	l1.6,1.6c0.3,0.3,0.6,0.4,1,0.3l2-0.5c0.3-0.1,0.6-0.4,0.7-0.7l0.5-2C34.8,30.4,34.7,30,34.4,29.8z"/>
<path class="st0" d="M21.7,25.7L21.7,25.7c-0.3-0.1-0.7,0-0.9,0.3l0,0c-0.3,0.5,0,1.1,0.6,1.2h0c0.4,0,0.7-0.2,0.8-0.5l0,0
	C22.3,26.3,22.1,25.9,21.7,25.7z"/>
<path class="st0" d="M22.4,22.9L22.4,22.9c-0.1-0.4-0.4-0.6-0.8-0.6l0,0c-0.6,0-0.9,0.6-0.7,1.1v0c0.2,0.3,0.5,0.5,0.9,0.4l0,0
	C22.3,23.7,22.5,23.3,22.4,22.9z"/>
<path class="st0" d="M24.6,21.1L24.6,21.1c0.1-0.3,0-0.7-0.3-0.9h0c-0.5-0.3-1.1,0-1.2,0.6v0c0,0.4,0.2,0.7,0.5,0.8h0
	C24,21.7,24.4,21.5,24.6,21.1z"/>
<path class="st0" d="M27.5,21.7L27.5,21.7c0.3-0.1,0.6-0.5,0.5-0.8v0c-0.1-0.6-0.7-0.9-1.2-0.6l0,0c-0.3,0.2-0.4,0.6-0.3,0.9v0
	C26.7,21.6,27.1,21.8,27.5,21.7z"/>
<path class="st0" d="M29.1,23.9L29.1,23.9c0.4,0.1,0.7-0.1,0.9-0.4l0,0c0.3-0.5-0.1-1.1-0.7-1.1h0c-0.4,0-0.7,0.2-0.8,0.6v0
	C28.4,23.3,28.7,23.8,29.1,23.9z"/>
<path class="st0" d="M28.6,26.7L28.6,26.7c0.1,0.4,0.4,0.6,0.8,0.6h0c0.6,0,0.9-0.6,0.7-1.1l0,0c-0.2-0.3-0.5-0.5-0.9-0.4l0,0
	C28.7,25.8,28.5,26.2,28.6,26.7z"/>
<path class="st0" d="M26.5,28.3L26.5,28.3c-0.1,0.3,0,0.7,0.3,0.9l0,0c0.5,0.3,1.1,0,1.2-0.6v0c0-0.4-0.2-0.7-0.5-0.8h0
	C27.1,27.7,26.6,27.9,26.5,28.3z"/>
</svg>
