<?xml version="1.0" encoding="utf-8"?>
<!-- Generator: Adobe Illustrator 25.2.0, SVG Export Plug-In . SVG Version: 6.00 Build 0)  -->
<svg version="1.1" id="Layer_1" xmlns="http://www.w3.org/2000/svg" xmlns:xlink="http://www.w3.org/1999/xlink" x="0px" y="0px"
	 viewBox="0 0 110 50" style="enable-background:new 0 0 110 50;" xml:space="preserve">
<style type="text/css">
	.st0{fill-rule:evenodd;clip-rule:evenodd;fill:#292663;}
</style>
<g id="Layer_1_1_">
	<g>
		<path class="st0" d="M36.8,24.7c1.5,0.2,2.8,0.4,4.2,0.6c1.1,0.1,2.2,0.3,3.3,0.4c0.2,0,0.5,0,0.6-0.2c0.6-0.5,1.2-1,1.9-1.6
			c-0.8-0.5-1.5-1-2.2-1.4c-0.1-0.1-0.3,0-0.4,0c-2.4,0.7-4.8,1.4-7.2,2C37,24.5,37,24.6,36.8,24.7L36.8,24.7z"/>
		<path class="st0" d="M27.9,30.5c-1.6,2-3.2,4-4.8,6c-0.1,0.1-0.2,0.3-0.2,0.5c0.1,0.8,0.3,1.6,0.5,2.5c0.9-0.4,1.7-0.8,2.5-1.3
			c0.1,0,0.1-0.2,0.1-0.3C26.7,35.5,27.3,33,27.9,30.5C27.9,30.5,27.9,30.5,27.9,30.5L27.9,30.5z"/>
		<path class="st0" d="M31.6,41.1c0.5-0.8,1-1.5,1.5-2.2c0.1-0.1,0.1-0.2,0.1-0.3c-0.7-2.5-1.4-4.9-2.1-7.4
			c-0.1,0.8-0.2,1.5-0.4,2.3c-0.3,1.7-0.5,3.4-0.8,5.1c0,0.3,0.1,0.6,0.2,0.8C30.5,39.9,31,40.5,31.6,41.1L31.6,41.1z"/>
		<path class="st0" d="M36.1,27.8c2,1.6,4,3.1,6,4.7c0.1,0.1,0.3,0.2,0.4,0.2c0.8-0.2,1.7-0.3,2.6-0.5c-0.4-0.8-0.8-1.6-1.2-2.4
			c-0.1-0.1-0.2-0.2-0.3-0.2C41.1,28.9,38.6,28.3,36.1,27.8C36.1,27.7,36.1,27.7,36.1,27.8L36.1,27.8z"/>
		<path class="st0" d="M39.5,38.4c0.1-0.9,0.1-1.7,0.2-2.5c0-0.2-0.1-0.4-0.2-0.5c-1.8-1.8-3.6-3.5-5.5-5.2c0.2,0.6,0.4,1.1,0.7,1.7
			c0.7,1.7,1.3,3.4,2,5.1c0.1,0.3,0.3,0.5,0.7,0.6C38.1,37.8,38.8,38.1,39.5,38.4L39.5,38.4z"/>
		<path class="st0" d="M47.8,39.9c-0.2-1.7-0.4-3.4-0.7-5.2c-1.5,0.3-2.9,0.5-4.4,0.8c-0.1,1.5-0.2,2.9-0.2,4.4
			C44.3,39.9,46.1,39.9,47.8,39.9L47.8,39.9z"/>
		<path class="st0" d="M50,25.2c-1.1,0.9-2.1,1.7-3.1,2.6c-0.1,0.1-0.2,0.4-0.2,0.5c0.6,1.2,1.2,2.4,1.9,3.7c1.5-0.9,3-1.8,4.6-2.6
			C52.1,27.9,51,26.5,50,25.2L50,25.2z"/>
		<path class="st0" d="M15.5,42.4c1.8-0.3,3.5-0.5,5.2-0.8c-0.2-1.5-0.5-2.9-0.7-4.3c-1.5,0-2.9-0.1-4.4-0.2
			C15.5,38.9,15.5,40.6,15.5,42.4L15.5,42.4z"/>
		<path class="st0" d="M52.5,17.5c-1.6-0.6-3.2-1.3-4.9-1.9c-0.5,1.3-1,2.6-1.4,3.9c0,0.1,0.1,0.3,0.2,0.4c1.1,0.7,2.3,1.4,3.5,2.2
			C50.7,20.5,51.5,19,52.5,17.5L52.5,17.5z"/>
		<path class="st0" d="M33.4,44c1.5,0.9,3,1.7,4.5,2.6c0.7-1.6,1.3-3.2,2-4.8c-1.3-0.5-2.6-0.9-3.9-1.3c-0.1,0-0.3,0-0.4,0.1
			C34.9,41.6,34.2,42.8,33.4,44L33.4,44z"/>
		<path class="st0" d="M23.5,43c0.9,1.5,1.7,3,2.6,4.5c1.4-1.1,2.8-2.1,4.2-3.2c-0.5-0.5-0.9-1.1-1.3-1.6c-0.4-0.5-0.8-1-1.3-1.5
			c-0.1-0.1-0.4-0.2-0.6-0.1C25.9,41.7,24.8,42.3,23.5,43L23.5,43z"/>
		<path class="st0" d="M33.9,20.8c0.3-1.5,0.5-3,0.7-4.4c0.2-1.2,0.4-2.3,0.6-3.5c0-0.2,0.2-0.4,0.4-0.5c0.7-0.4,1.5-0.8,2.2-1.2
			c0.3,1,0.5,1.9,0.8,2.8c0,0.1,0,0.3-0.1,0.4c-1.5,2.1-2.9,4.1-4.4,6.2C34.1,20.6,34,20.6,33.9,20.8L33.9,20.8z"/>
		<path class="st0" d="M35.8,22.7c1-1.2,2-2.3,2.9-3.4c0.8-0.9,1.5-1.8,2.3-2.7c0.1-0.2,0.4-0.3,0.6-0.3c0.8,0,1.6,0.1,2.5,0.1
			c-0.3,1-0.5,1.9-0.8,2.8c0,0.1-0.2,0.2-0.3,0.3c-2.3,1-4.6,2-6.9,3C36,22.7,36,22.7,35.8,22.7L35.8,22.7z"/>
		<path class="st0" d="M25.1,27c-2.5,0.7-5.1,1.4-7.6,2.1c-0.2,0-0.4,0.1-0.5,0c-0.8-0.5-1.6-1-2.4-1.6c0.7-0.7,1.4-1.3,2.1-1.9
			c0.1-0.1,0.2,0,0.3,0c2.7,0.4,5.4,0.9,8.1,1.3C25.1,27,25.1,27,25.1,27L25.1,27z"/>
		<path class="st0" d="M26.4,28.8c-1.7,2-3.5,3.9-5.2,5.9C21,34.8,20.8,35,20.7,35c-0.9,0-1.9,0-2.9,0c0.2-1,0.5-1.8,0.7-2.7
			c0-0.1,0.2-0.1,0.3-0.2c2.5-1.1,5-2.2,7.5-3.3C26.3,28.8,26.3,28.8,26.4,28.8L26.4,28.8z"/>
		<path class="st0" d="M15.6,18.7c0.9-0.2,1.8-0.3,2.7-0.5c0.1,0,0.3,0,0.4,0.1c2.3,1.8,4.5,3.5,6.8,5.4c-0.8-0.2-1.6-0.4-2.4-0.6
			c-1.8-0.5-3.6-1-5.4-1.5c-0.3-0.1-0.6-0.3-0.7-0.6C16.4,20.2,16.1,19.5,15.6,18.7L15.6,18.7z"/>
		<path class="st0" d="M30.5,20.1c-0.9-2.7-1.9-5.3-2.8-8c0-0.1-0.1-0.4,0-0.5c0.4-0.8,0.9-1.5,1.4-2.4c0.7,0.8,1.4,1.5,2,2.2
			c0.1,0.1,0.1,0.3,0.1,0.4c-0.2,2.7-0.4,5.5-0.5,8.2C30.6,20.1,30.6,20.1,30.5,20.1L30.5,20.1z"/>
		<path class="st0" d="M20.9,12c0.9,0.3,1.7,0.6,2.6,0.9c0.2,0.1,0.4,0.2,0.5,0.4c1.2,2.6,2.4,5.1,3.5,7.8c-0.5-0.5-1-0.9-1.5-1.4
			c-1.5-1.4-3-2.8-4.5-4.2c-0.3-0.3-0.4-0.5-0.4-0.9C21,13.7,20.9,12.9,20.9,12L20.9,12z"/>
		<path class="st0" d="M22,3.1c1.7,1,3.3,1.9,5,3c-0.7,1.3-1.5,2.6-2.2,4c-1.5-0.6-3-1.1-4.5-1.7C20.9,6.6,21.4,4.9,22,3.1L22,3.1z"
			/>
		<path class="st0" d="M37.6,7.5c-1.2,0.7-2.4,1.3-3.6,1.9c-0.1,0.1-0.4,0.1-0.5,0c-1-1.1-2.1-2.3-3.1-3.5c1.4-1.1,2.8-2.2,4.2-3.4
			C35.5,4.2,36.5,5.8,37.6,7.5L37.6,7.5z"/>
		<path class="st0" d="M9.1,34.1c0.8-1.6,1.6-3.2,2.4-4.8c1.4,0.9,2.7,1.8,4.1,2.6c-0.4,1.5-0.8,2.9-1.3,4.5
			C12.7,35.6,11,34.9,9.1,34.1L9.1,34.1z"/>
		<path class="st0" d="M46.1,8.4c0.1,1.9,0.3,3.8,0.4,5.7c-1.5-0.1-3-0.2-4.4-0.3c-0.1,0-0.3-0.2-0.3-0.3c-0.4-1.4-0.7-2.9-1.1-4.4
			C42.5,8.9,44.3,8.7,46.1,8.4L46.1,8.4z"/>
		<path class="st0" d="M13.3,15.6c-0.4-1.9-0.8-3.7-1.1-5.6c1.9,0.1,3.7,0.1,5.6,0.1c0,1.5,0.1,3,0.1,4.4c0,0.1-0.1,0.3-0.2,0.4
			C16.2,15.2,14.8,15.4,13.3,15.6L13.3,15.6z"/>
		<path class="st0" d="M11.1,25.9c-1.2-1.5-2.4-3-3.7-4.6c1.6-0.9,3.1-1.8,4.6-2.7c0.4,0.7,0.8,1.3,1.2,2c0.4,0.6,0.8,1.3,1.1,1.9
			c0.1,0.2,0.1,0.5-0.1,0.6C13.2,24,12.2,24.9,11.1,25.9L11.1,25.9z"/>
	</g>
</g>
<g id="Layer_2_1_">
</g>
</svg>
