<?xml version="1.0" encoding="utf-8"?>
<!-- Generator: Adobe Illustrator 25.2.0, SVG Export Plug-In . SVG Version: 6.00 Build 0)  -->
<svg version="1.1" id="Layer_1" xmlns="http://www.w3.org/2000/svg" xmlns:xlink="http://www.w3.org/1999/xlink" x="0px" y="0px"
	 viewBox="0 0 300 300" style="enable-background:new 0 0 300 300;" xml:space="preserve">
<style type="text/css">
	.st0{fill-rule:evenodd;clip-rule:evenodd;fill:#292663;}
</style>
<g>
	<path class="st0" d="M181.84,148.92c7.03,0.99,13.57,1.92,20.12,2.83c5.37,0.75,10.72,1.51,16.1,2.12c0.97,0.12,2.24-0.23,3-0.83
		c3.07-2.41,5.99-5.01,9.25-7.8c-3.71-2.44-7.14-4.75-10.64-6.94c-0.49-0.31-1.36-0.26-1.97-0.09c-11.57,3.28-23.11,6.6-34.66,9.93
		C182.81,148.2,182.61,148.41,181.84,148.92L181.84,148.92z"/>
	<path class="st0" d="M138.54,177.23c-7.71,9.64-15.43,19.28-23.1,28.95c-0.49,0.61-0.98,1.57-0.86,2.26
		c0.62,3.95,1.41,7.87,2.23,12.3c4.18-2.12,8.11-4.08,12-6.12c0.36-0.19,0.53-0.88,0.65-1.37c3.18-11.96,6.33-23.93,9.5-35.9
		C138.83,177.32,138.68,177.28,138.54,177.23L138.54,177.23z"/>
	<path class="st0" d="M156.48,228.31c2.48-3.67,4.82-7.11,7.11-10.6c0.29-0.44,0.43-1.18,0.29-1.69
		c-3.24-11.9-6.53-23.78-10.3-35.69c-0.61,3.71-1.23,7.4-1.81,11.12c-1.28,8.18-2.62,16.37-3.75,24.57
		c-0.16,1.24,0.38,2.89,1.16,3.9C151.35,222.73,153.83,225.31,156.48,228.31L156.48,228.31z"/>
	<path class="st0" d="M178.41,163.81c9.64,7.56,19.26,15.14,28.93,22.67c0.56,0.44,1.45,0.83,2.1,0.71c4.08-0.72,8.14-1.6,12.58-2.5
		c-1.98-3.97-3.81-7.71-5.74-11.38c-0.27-0.5-1.06-0.86-1.68-1.02c-12.01-2.97-24.04-5.91-36.06-8.86
		C178.48,163.55,178.44,163.68,178.41,163.81L178.41,163.81z"/>
	<path class="st0" d="M194.98,215.15c0.3-4.24,0.64-8.14,0.81-12.06c0.04-0.82-0.32-1.9-0.89-2.46
		c-8.69-8.52-17.45-16.97-26.63-25.24c1.05,2.79,2.08,5.57,3.16,8.35c3.21,8.27,6.48,16.52,9.67,24.79c0.6,1.55,1.41,2.58,3.16,3.06
		C187.82,212.61,191.31,213.91,194.98,215.15L194.98,215.15z"/>
	<path class="st0" d="M235.22,222.58c-1.09-8.41-2.14-16.52-3.24-25.01c-7.08,1.31-14.04,2.59-21.18,3.91
		c-0.36,7.1-0.71,14.05-1.08,21.28C218.2,222.71,226.53,222.65,235.22,222.58L235.22,222.58z"/>
	<path class="st0" d="M245.51,151.3c-5.2,4.32-10.17,8.4-15.07,12.6c-0.56,0.48-1.09,1.77-0.83,2.3c2.92,5.91,5.99,11.75,9.11,17.76
		c7.48-4.32,14.68-8.48,22.22-12.84C255.74,164.46,250.69,157.96,245.51,151.3L245.51,151.3z"/>
	<path class="st0" d="M78.43,234.51c8.51-1.24,16.75-2.43,25.29-3.66c-1.2-7-2.37-13.83-3.58-20.92
		c-7.05-0.24-14.06-0.47-21.46-0.72C78.59,217.57,78.51,225.88,78.43,234.51L78.43,234.51z"/>
	<path class="st0" d="M257.49,114.24c-7.93-3.15-15.6-6.2-23.51-9.35c-2.39,6.44-4.74,12.7-6.99,19c-0.17,0.47,0.28,1.52,0.75,1.82
		c5.48,3.52,11.04,6.96,16.8,10.56C248.88,128.88,253.14,121.64,257.49,114.24L257.49,114.24z"/>
	<path class="st0" d="M165.28,242.36c7.44,4.22,14.53,8.24,21.95,12.44c3.3-7.91,6.52-15.63,9.82-23.5
		c-6.42-2.26-12.57-4.43-18.75-6.52c-0.56-0.19-1.67,0.03-1.96,0.45C172.66,230.79,169.08,236.43,165.28,242.36L165.28,242.36z"/>
	<path class="st0" d="M117.3,237.4c4.21,7.3,8.29,14.37,12.56,21.75c6.8-5.25,13.39-10.35,20.24-15.65
		c-2.16-2.6-4.24-5.12-6.34-7.61c-2.01-2.4-3.96-4.87-6.14-7.12c-0.56-0.58-2.11-0.9-2.8-0.55
		C129.05,231.1,123.4,234.17,117.3,237.4L117.3,237.4z"/>
	<path class="st0" d="M167.58,129.87c1.25-7.39,2.39-14.29,3.59-21.17c0.96-5.64,1.9-11.28,3.01-16.87c0.2-1.01,0.95-2.13,1.8-2.61
		c3.43-1.96,7-3.7,10.86-5.71c1.28,4.75,2.51,9.17,3.62,13.6c0.15,0.62-0.17,1.46-0.54,1.99c-7.02,10-14.08,19.97-21.15,29.94
		C168.63,129.24,168.35,129.34,167.58,129.87L167.58,129.87z"/>
	<path class="st0" d="M176.84,139.36c4.89-5.69,9.44-10.99,14.01-16.28c3.74-4.33,7.47-8.68,11.31-12.88
		c0.69-0.77,1.91-1.33,2.89-1.31c3.95,0.09,7.9,0.43,12.25,0.72c-1.36,4.73-2.59,9.15-3.93,13.51c-0.2,0.61-0.91,1.16-1.5,1.42
		c-11.18,4.93-22.38,9.82-33.58,14.72C178.06,139.35,177.78,139.3,176.84,139.36L176.84,139.36z"/>
	<path class="st0" d="M125.07,160.24c-12.23,3.38-24.45,6.77-36.7,10.1c-0.78,0.21-1.89,0.27-2.57-0.15
		c-3.8-2.36-7.51-4.87-11.73-7.65c3.48-3.2,6.72-6.23,10.04-9.18c0.31-0.27,1.05-0.14,1.59-0.05c13.12,2.13,26.24,4.3,39.36,6.46
		C125.07,159.92,125.07,160.08,125.07,160.24L125.07,160.24z"/>
	<path class="st0" d="M131.13,169.03c-8.42,9.49-16.82,18.98-25.27,28.43c-0.54,0.6-1.45,1.25-2.24,1.27c-4.46,0.09-8.95,0-14-0.03
		c1.17-4.58,2.25-8.88,3.42-13.16c0.11-0.4,0.81-0.69,1.31-0.9c12.17-5.35,24.35-10.68,36.53-16.01
		C130.96,168.75,131.04,168.89,131.13,169.03L131.13,169.03z"/>
	<path class="st0" d="M79.14,119.92c4.51-0.83,8.74-1.63,13-2.35c0.55-0.09,1.33,0.09,1.8,0.45c11,8.47,21.97,16.98,32.8,25.96
		c-3.95-1.03-7.89-2.05-11.82-3.11c-8.69-2.34-17.4-4.63-26.06-7.14c-1.31-0.39-2.8-1.64-3.58-2.87
		C83.14,127.46,81.32,123.86,79.14,119.92L79.14,119.92z"/>
	<path class="st0" d="M151.42,126.69c-4.56-12.88-9.14-25.76-13.66-38.65c-0.26-0.74-0.38-1.8-0.05-2.39
		c2.04-3.72,4.23-7.36,6.57-11.36c3.38,3.72,6.57,7.17,9.66,10.72c0.42,0.48,0.53,1.43,0.49,2.11c-0.83,13.21-1.71,26.42-2.59,39.63
		C151.7,126.74,151.55,126.71,151.42,126.69L151.42,126.69z"/>
	<path class="st0" d="M104.81,87.61c4.38,1.57,8.43,2.96,12.44,4.52c0.84,0.33,1.82,1.16,2.2,1.97c5.84,12.37,11.58,24.77,17,37.52
		c-2.48-2.27-4.98-4.52-7.43-6.82c-7.33-6.83-14.63-13.71-21.97-20.53c-1.39-1.28-2.15-2.53-2.09-4.47
		C105.07,95.81,104.88,91.78,104.81,87.61L104.81,87.61z"/>
	<path class="st0" d="M110.18,44.48c8.16,4.79,16.02,9.41,24.26,14.26c-3.59,6.43-7.12,12.76-10.75,19.25
		c-7.3-2.78-14.43-5.5-21.87-8.35C104.6,61.28,107.33,53.06,110.18,44.48L110.18,44.48z"/>
	<path class="st0" d="M185.59,65.79c-6.03,3.24-11.76,6.36-17.58,9.35c-0.66,0.34-2.15,0.29-2.59-0.19
		c-5.04-5.5-9.96-11.13-15.05-16.87c6.77-5.49,13.29-10.79,20.11-16.33C175.56,49.83,180.5,57.71,185.59,65.79L185.59,65.79z"/>
	<path class="st0" d="M47.85,194.46c3.98-7.87,7.83-15.51,11.82-23.42c6.69,4.27,13.22,8.45,20,12.79
		c-2.01,7.08-4.02,14.13-6.14,21.57C65.04,201.78,56.61,198.19,47.85,194.46L47.85,194.46z"/>
	<path class="st0" d="M226.91,70.3c0.64,9.23,1.27,18.18,1.92,27.41c-7.28-0.48-14.37-0.92-21.46-1.48
		c-0.53-0.04-1.45-0.94-1.6-1.54c-1.81-7-3.5-14.02-5.29-21.3C209.35,72.35,218.04,71.33,226.91,70.3L226.91,70.3z"/>
	<path class="st0" d="M67.76,105c-1.88-9.23-3.68-18.03-5.55-27.23c9.05,0.22,17.91,0.45,26.93,0.67c0.22,7.35,0.45,14.4,0.58,21.45
		c0.01,0.63-0.57,1.64-1.09,1.73C81.82,102.8,74.97,103.85,67.76,105L67.76,105z"/>
	<path class="st0" d="M57.38,154.69c-6.04-7.4-11.87-14.56-17.98-22.04c7.51-4.42,14.76-8.69,22.33-13.12
		c1.93,3.29,3.81,6.46,5.66,9.64c1.78,3.06,3.66,6.08,5.24,9.23c0.4,0.81,0.23,2.48-0.34,3.02
		C67.53,145.83,62.6,150.08,57.38,154.69L57.38,154.69z"/>
</g>
</svg>
