<?xml version="1.0" encoding="utf-8"?>
<!-- Generator: Adobe Illustrator 25.2.0, SVG Export Plug-In . SVG Version: 6.00 Build 0)  -->
<svg version="1.1" xmlns="http://www.w3.org/2000/svg" xmlns:xlink="http://www.w3.org/1999/xlink" x="0px" y="0px"
	 viewBox="0 0 110 50" style="enable-background:new 0 0 110 50;" xml:space="preserve">
<style type="text/css">
	.st0{display:none;}
	.st1{display:inline;fill:#FFFFFF;stroke:#000000;stroke-miterlimit:10;}
	.st2{display:inline;fill:none;stroke:#000000;stroke-miterlimit:10;}
	.st3{fill:#65C8D0;}
</style>
<g id="Layer_1" class="st0">
	
		<image style="display:inline;overflow:visible;" width="1080" height="712" xlink:href="../../../../OneDrive/Desktop/IMG-20230119-WA0007.png"  transform="matrix(0.6 0 0 0.6 -266.5587 -200.6142)">
	</image>
</g>
<g id="Layer_3" class="st0">
	<circle class="st1" cx="131.1" cy="-76.6" r="19.9"/>
	<line class="st2" x1="167.7" y1="-76.6" x2="83" y2="-76.6"/>
	<line class="st2" x1="166.4" y1="-41.9" x2="96.9" y2="-111.4"/>
	<line class="st2" x1="132.2" y1="-117.3" x2="131.1" y2="-38.7"/>
	<line class="st2" x1="102.4" y1="-47.4" x2="165.8" y2="-110.7"/>
</g>
<g id="Layer_2">
	<path class="st3" d="M60.3,19.8l-5.3,0c-0.3,0-0.5,0.1-0.7,0.3L50,24.6c-0.4,0.4-0.4,1,0,1.4l4.3,4.5c0.2,0.2,0.4,0.3,0.7,0.3h5.3
		c0.4,0,0.7-0.2,0.9-0.5l2.6-4.5c0.2-0.3,0.2-0.7,0-1l-2.6-4.5C61,20,60.6,19.8,60.3,19.8z"/>
	<path class="st3" d="M36.7,31.3l-0.9,0.3c-0.4,0.2-0.7,0.6-0.6,1.1l0.2,1.3c0.1,0.7,0.9,1.1,1.5,0.7l1.1-0.7
		c0.4-0.3,0.6-0.7,0.4-1.2L38,31.9C37.8,31.4,37.3,31.1,36.7,31.3z"/>
	<path class="st3" d="M46.4,25.5l-1.6,1.6v2.3c0,0.2-0.2,0.4-0.4,0.4h-2.3l-1.6,1.6c-0.1,0.1-0.4,0.1-0.5,0l-1.6-1.6H36
		c-0.2,0-0.4-0.2-0.4-0.4v-2.3l-1.6-1.6c-0.1-0.1-0.1-0.4,0-0.5l1.6-1.6v-2.3c0-0.2,0.2-0.4,0.4-0.4h2.3l1.6-1.6
		c0.1-0.1,0.4-0.1,0.5,0l1.6,1.6h2.3c0.2,0,0.4,0.2,0.4,0.4v2.3l1.6,1.6C46.5,25.2,46.5,25.4,46.4,25.5z"/>
	<path class="st3" d="M50.4,7.5l-3.7,3.7c-0.2,0.2-0.3,0.5-0.3,0.7l0.1,6.2c0,0.5,0.4,1,1,1l6.2,0.1c0.3,0,0.5-0.1,0.7-0.3l3.7-3.7
		c0.3-0.3,0.4-0.6,0.3-1l-1.3-5c-0.1-0.3-0.4-0.6-0.7-0.7l-5-1.3C51,7.1,50.7,7.2,50.4,7.5z"/>
	<path class="st3" d="M34.8,5.4l0,5.3c0,0.3,0.1,0.5,0.3,0.7l4.5,4.3c0.4,0.4,1,0.4,1.4,0l4.5-4.3c0.2-0.2,0.3-0.4,0.3-0.7V5.4
		c0-0.4-0.2-0.7-0.5-0.9l-4.5-2.6c-0.3-0.2-0.7-0.2-1,0l-4.5,2.6C35,4.7,34.8,5,34.8,5.4z"/>
	<path class="st3" d="M22.2,15l3.7,3.7c0.2,0.2,0.5,0.3,0.7,0.3l6.2-0.1c0.5,0,1-0.4,1-1l0.1-6.2c0-0.3-0.1-0.5-0.3-0.7l-3.7-3.7
		c-0.3-0.3-0.6-0.4-1-0.3l-5,1.3c-0.3,0.1-0.6,0.4-0.7,0.7l-1.3,5C21.8,14.4,21.9,14.7,22.2,15z"/>
	<path class="st3" d="M20.1,30.7h5.3c0.3,0,0.5-0.1,0.7-0.3l4.3-4.5c0.4-0.4,0.4-1,0-1.4l-4.3-4.5c-0.2-0.2-0.4-0.3-0.7-0.3l-5.3,0
		c-0.4,0-0.7,0.2-0.9,0.5l-2.6,4.5c-0.2,0.3-0.2,0.7,0,1l2.6,4.5C19.5,30.5,19.8,30.7,20.1,30.7z"/>
	<path class="st3" d="M29.9,43.3l3.7-3.7c0.2-0.2,0.3-0.5,0.3-0.7l-0.1-6.2c0-0.5-0.4-1-1-1l-6.2-0.1c-0.3,0-0.5,0.1-0.7,0.3
		l-3.7,3.7c-0.3,0.3-0.4,0.6-0.3,1l1.3,5c0.1,0.3,0.4,0.6,0.7,0.7l5,1.3C29.3,43.7,29.7,43.6,29.9,43.3z"/>
	<path class="st3" d="M45.7,45.2v-5.3c0-0.3-0.1-0.5-0.3-0.7l-4.5-4.3c-0.4-0.4-1-0.4-1.4,0l-4.5,4.3c-0.2,0.2-0.3,0.4-0.3,0.7
		l0,5.3c0,0.4,0.2,0.7,0.5,0.9l4.5,2.6c0.3,0.2,0.7,0.2,1,0l4.5-2.6C45.5,45.9,45.7,45.6,45.7,45.2z"/>
	<path class="st3" d="M58.1,35.5l-3.7-3.7c-0.2-0.2-0.5-0.3-0.7-0.3l-6.2,0.1c-0.5,0-1,0.4-1,1l-0.1,6.2c0,0.3,0.1,0.5,0.3,0.7
		l3.7,3.7c0.3,0.3,0.6,0.4,1,0.3l5-1.3c0.3-0.1,0.6-0.4,0.7-0.7l1.3-5C58.5,36.1,58.4,35.7,58.1,35.5z"/>
	<path class="st3" d="M33.3,27.3L32.4,27c-0.4-0.2-0.9,0-1.2,0.4l-0.7,1.1c-0.4,0.6,0,1.4,0.7,1.5l1.3,0.2c0.5,0.1,0.9-0.2,1.1-0.6
		l0.3-0.9C34.1,28.1,33.8,27.5,33.3,27.3z"/>
	<path class="st3" d="M34.4,22.1l-0.2-0.9c-0.1-0.5-0.5-0.8-1-0.7l-1.3,0.1c-0.7,0-1.2,0.8-0.8,1.5l0.6,1.1c0.2,0.4,0.7,0.6,1.1,0.5
		l0.9-0.2C34.2,23.2,34.5,22.6,34.4,22.1z"/>
	<path class="st3" d="M38.3,18.6l0.3-0.9c0.2-0.4,0-0.9-0.4-1.2l-1.1-0.7c-0.6-0.4-1.4,0-1.5,0.7l-0.2,1.3c-0.1,0.5,0.2,0.9,0.6,1.1
		l0.9,0.3C37.5,19.4,38.1,19.2,38.3,18.6z"/>
	<path class="st3" d="M43.7,19.4l0.9-0.3c0.4-0.2,0.7-0.6,0.6-1.1l-0.2-1.3C45,16,44.2,15.6,43.5,16l-1.1,0.7
		c-0.4,0.3-0.6,0.7-0.4,1.2l0.3,0.9C42.6,19.3,43.2,19.6,43.7,19.4z"/>
	<path class="st3" d="M46.7,23.4l0.9,0.2c0.5,0.1,0.9-0.1,1.1-0.5l0.6-1.1c0.3-0.6-0.1-1.4-0.8-1.5l-1.3-0.1c-0.5,0-0.9,0.3-1,0.7
		L46,22.1C45.9,22.7,46.2,23.2,46.7,23.4z"/>
	<path class="st3" d="M46.2,28.4l0.2,0.9c0.1,0.5,0.5,0.8,1,0.7l1.3-0.1c0.7,0,1.2-0.8,0.8-1.5l-0.6-1.1c-0.2-0.4-0.7-0.6-1.1-0.5
		l-0.9,0.2C46.3,27.4,46,27.9,46.2,28.4z"/>
	<path class="st3" d="M42.3,31.7L42,32.6c-0.2,0.4,0,0.9,0.4,1.2l1.1,0.7c0.6,0.4,1.4,0,1.5-0.7l0.2-1.3c0.1-0.5-0.2-0.9-0.6-1.1
		l-0.9-0.3C43.1,31,42.5,31.2,42.3,31.7z"/>
	<path class="st3" d="M20.1-5.5l-5.3,0c-0.3,0-0.5,0.1-0.7,0.3L9.8-0.7c-0.4,0.4-0.4,1,0,1.4l4.3,4.5c0.2,0.2,0.4,0.3,0.7,0.3l5.3,0
		c0.4,0,0.7-0.2,0.9-0.5l2.6-4.5c0.2-0.3,0.2-0.7,0-1L20.9-5C20.8-5.3,20.4-5.5,20.1-5.5z"/>
	<path class="st3" d="M-3.5,6l-0.9,0.3C-4.8,6.5-5.1,6.9-5,7.4l0.2,1.3C-4.8,9.4-4,9.8-3.3,9.4l1.1-0.7c0.4-0.3,0.6-0.7,0.4-1.2
		l-0.3-0.9C-2.4,6.1-3,5.8-3.5,6z"/>
	<path class="st3" d="M6.2,0.3L4.5,1.9v2.3c0,0.2-0.2,0.4-0.4,0.4H1.9L0.3,6.2c-0.1,0.1-0.4,0.1-0.5,0l-1.6-1.6h-2.3
		c-0.2,0-0.4-0.2-0.4-0.4V1.9l-1.6-1.6c-0.1-0.1-0.1-0.4,0-0.5l1.6-1.6v-2.3c0-0.2,0.2-0.4,0.4-0.4h2.3l1.6-1.6
		c0.1-0.1,0.4-0.1,0.5,0l1.6,1.6h2.3c0.2,0,0.4,0.2,0.4,0.4v2.3l1.6,1.6C6.3-0.1,6.3,0.1,6.2,0.3z"/>
	<path class="st3" d="M10.2-17.8l-3.7,3.7c-0.2,0.2-0.3,0.5-0.3,0.7l0.1,6.2c0,0.5,0.4,1,1,1l6.2,0.1c0.3,0,0.5-0.1,0.7-0.3l3.7-3.7
		c0.3-0.3,0.4-0.6,0.3-1l-1.3-5c-0.1-0.3-0.4-0.6-0.7-0.7l-5-1.3C10.8-18.2,10.4-18.1,10.2-17.8z"/>
	<path class="st3" d="M-5.5-19.9l0,5.3c0,0.3,0.1,0.5,0.3,0.7l4.5,4.3c0.4,0.4,1,0.4,1.4,0l4.5-4.3c0.2-0.2,0.3-0.4,0.3-0.7l0-5.3
		c0-0.4-0.2-0.7-0.5-0.9l-4.5-2.6c-0.3-0.2-0.7-0.2-1,0L-5-20.8C-5.3-20.6-5.5-20.3-5.5-19.9z"/>
	<path class="st3" d="M-18-10.3l3.7,3.7c0.2,0.2,0.5,0.3,0.7,0.3l6.2-0.1c0.5,0,1-0.4,1-1l0.1-6.2c0-0.3-0.1-0.5-0.3-0.7l-3.7-3.7
		c-0.3-0.3-0.6-0.4-1-0.3l-5,1.3c-0.3,0.1-0.6,0.4-0.7,0.7l-1.3,5C-18.4-10.9-18.3-10.6-18-10.3z"/>
	<path class="st3" d="M-20.1,5.5l5.3,0c0.3,0,0.5-0.1,0.7-0.3l4.3-4.5c0.4-0.4,0.4-1,0-1.4l-4.3-4.5c-0.2-0.2-0.4-0.3-0.7-0.3
		l-5.3,0c-0.4,0-0.7,0.2-0.9,0.5l-2.6,4.5c-0.2,0.3-0.2,0.7,0,1l2.6,4.5C-20.8,5.3-20.4,5.5-20.1,5.5z"/>
	<path class="st3" d="M-10.3,18l3.7-3.7c0.2-0.2,0.3-0.5,0.3-0.7l-0.1-6.2c0-0.5-0.4-1-1-1l-6.2-0.1c-0.3,0-0.5,0.1-0.7,0.3
		l-3.7,3.7c-0.3,0.3-0.4,0.6-0.3,1l1.3,5c0.1,0.3,0.4,0.6,0.7,0.7l5,1.3C-10.9,18.4-10.6,18.3-10.3,18z"/>
	<path class="st3" d="M5.5,19.9l0-5.3c0-0.3-0.1-0.5-0.3-0.7L0.7,9.6c-0.4-0.4-1-0.4-1.4,0l-4.5,4.3c-0.2,0.2-0.3,0.4-0.3,0.7l0,5.3
		c0,0.4,0.2,0.7,0.5,0.9l4.5,2.6c0.3,0.2,0.7,0.2,1,0L5,20.8C5.3,20.6,5.5,20.3,5.5,19.9z"/>
	<path class="st3" d="M17.9,10.2l-3.7-3.7c-0.2-0.2-0.5-0.3-0.7-0.3L7.3,6.3c-0.5,0-1,0.4-1,1l-0.1,6.2c0,0.3,0.1,0.5,0.3,0.7
		l3.7,3.7c0.3,0.3,0.6,0.4,1,0.3l5-1.3c0.3-0.1,0.6-0.4,0.7-0.7l1.3-5C18.2,10.8,18.1,10.4,17.9,10.2z"/>
	<path class="st3" d="M-6.9,2.1l-0.9-0.3c-0.4-0.2-0.9,0-1.2,0.4l-0.7,1.1c-0.4,0.6,0,1.4,0.7,1.5l1.3,0.2C-7.3,5-6.8,4.7-6.7,4.2
		l0.3-0.9C-6.1,2.8-6.4,2.2-6.9,2.1z"/>
	<path class="st3" d="M-5.9-3.2l-0.2-0.9c-0.1-0.5-0.5-0.8-1-0.7l-1.3,0.1c-0.7,0-1.2,0.8-0.8,1.5l0.6,1.1C-8.4-1.8-8-1.6-7.5-1.7
		L-6.6-2C-6-2.1-5.7-2.7-5.9-3.2z"/>
	<path class="st3" d="M-2-6.6l0.3-0.9C-1.5-8-1.6-8.5-2-8.7l-1.1-0.7c-0.6-0.4-1.4,0-1.5,0.7l-0.2,1.3C-4.9-7-4.6-6.5-4.1-6.4
		L-3.2-6C-2.7-5.9-2.1-6.1-2-6.6z"/>
	<path class="st3" d="M3.5-5.9l0.9-0.3C4.8-6.4,5.1-6.8,5-7.3L4.9-8.6C4.8-9.3,3.9-9.7,3.3-9.3L2.3-8.6C1.9-8.3,1.7-7.8,1.9-7.4
		l0.3,0.9C2.4-6,2.9-5.7,3.5-5.9z"/>
	<path class="st3" d="M6.5-1.9l0.9,0.2c0.5,0.1,0.9-0.1,1.1-0.5l0.6-1.1C9.5-4,9.1-4.7,8.3-4.8L7.1-4.8c-0.5,0-0.9,0.3-1,0.7
		L5.8-3.1C5.7-2.6,6-2.1,6.5-1.9z"/>
	<path class="st3" d="M5.9,3.1l0.2,0.9c0.1,0.5,0.5,0.8,1,0.7l1.3-0.1c0.7,0,1.2-0.8,0.8-1.5L8.7,2.2C8.5,1.8,8,1.6,7.6,1.7L6.6,1.9
		C6.1,2.1,5.8,2.6,5.9,3.1z"/>
	<path class="st3" d="M2.1,6.5L1.8,7.4c-0.2,0.4,0,0.9,0.4,1.2l1.1,0.7c0.6,0.4,1.4,0,1.5-0.7l0.2-1.3C5,6.8,4.7,6.3,4.3,6.2
		L3.4,5.9C2.9,5.7,2.3,5.9,2.1,6.5z"/>
	<path class="st3" d="M20.1,45l-5.3,0c-0.3,0-0.5,0.1-0.7,0.3l-4.3,4.5c-0.4,0.4-0.4,1,0,1.4l4.3,4.5c0.2,0.2,0.4,0.3,0.7,0.3h5.3
		c0.4,0,0.7-0.2,0.9-0.5l2.6-4.5c0.2-0.3,0.2-0.7,0-1l-2.6-4.5C20.8,45.2,20.4,45,20.1,45z"/>
	<path class="st3" d="M-3.5,56.5l-0.9,0.3C-4.8,57-5.1,57.4-5,57.9l0.2,1.3c0.1,0.7,0.9,1.1,1.5,0.7l1.1-0.7
		c0.4-0.3,0.6-0.7,0.4-1.2l-0.3-0.9C-2.4,56.6-3,56.3-3.5,56.5z"/>
	<path class="st3" d="M6.2,50.7l-1.6,1.6v2.3c0,0.2-0.2,0.4-0.4,0.4H1.9l-1.6,1.6c-0.1,0.1-0.4,0.1-0.5,0L-1.9,55h-2.3
		c-0.2,0-0.4-0.2-0.4-0.4v-2.3l-1.6-1.6c-0.1-0.1-0.1-0.4,0-0.5l1.6-1.6v-2.3c0-0.2,0.2-0.4,0.4-0.4h2.3l1.6-1.6
		c0.1-0.1,0.4-0.1,0.5,0l1.6,1.6h2.3c0.2,0,0.4,0.2,0.4,0.4v2.3l1.6,1.6C6.3,50.4,6.3,50.6,6.2,50.7z"/>
	<path class="st3" d="M10.2,32.7l-3.7,3.7c-0.2,0.2-0.3,0.5-0.3,0.7l0.1,6.2c0,0.5,0.4,1,1,1l6.2,0.1c0.3,0,0.5-0.1,0.7-0.3l3.7-3.7
		c0.3-0.3,0.4-0.6,0.3-1l-1.3-5c-0.1-0.3-0.4-0.6-0.7-0.7l-5-1.3C10.8,32.3,10.4,32.4,10.2,32.7z"/>
	<path class="st3" d="M-5.5,30.5l0,5.3c0,0.3,0.1,0.5,0.3,0.7l4.5,4.3c0.4,0.4,1,0.4,1.4,0l4.5-4.3c0.2-0.2,0.3-0.4,0.3-0.7l0-5.3
		c0-0.4-0.2-0.7-0.5-0.9l-4.5-2.6c-0.3-0.2-0.7-0.2-1,0L-5,29.7C-5.3,29.9-5.5,30.2-5.5,30.5z"/>
	<path class="st3" d="M-18,40.2l3.7,3.7c0.2,0.2,0.5,0.3,0.7,0.3l6.2-0.1c0.5,0,1-0.4,1-1l0.1-6.2c0-0.3-0.1-0.5-0.3-0.7l-3.7-3.7
		c-0.3-0.3-0.6-0.4-1-0.3l-5,1.3c-0.3,0.1-0.6,0.4-0.7,0.7l-1.3,5C-18.4,39.5-18.3,39.9-18,40.2z"/>
	<path class="st3" d="M-20.1,55.9h5.3c0.3,0,0.5-0.1,0.7-0.3l4.3-4.5c0.4-0.4,0.4-1,0-1.4l-4.3-4.5c-0.2-0.2-0.4-0.3-0.7-0.3l-5.3,0
		c-0.4,0-0.7,0.2-0.9,0.5l-2.6,4.5c-0.2,0.3-0.2,0.7,0,1l2.6,4.5C-20.8,55.7-20.4,55.9-20.1,55.9z"/>
	<path class="st3" d="M-10.3,68.5l3.7-3.7c0.2-0.2,0.3-0.5,0.3-0.7l-0.1-6.2c0-0.5-0.4-1-1-1l-6.2-0.1c-0.3,0-0.5,0.1-0.7,0.3
		l-3.7,3.7c-0.3,0.3-0.4,0.6-0.3,1l1.3,5c0.1,0.3,0.4,0.6,0.7,0.7l5,1.3C-10.9,68.9-10.6,68.8-10.3,68.5z"/>
	<path class="st3" d="M5.5,70.4l0-5.3c0-0.3-0.1-0.5-0.3-0.7l-4.5-4.3c-0.4-0.4-1-0.4-1.4,0l-4.5,4.3c-0.2,0.2-0.3,0.4-0.3,0.7
		l0,5.3c0,0.4,0.2,0.7,0.5,0.9l4.5,2.6c0.3,0.2,0.7,0.2,1,0L5,71.3C5.3,71.1,5.5,70.8,5.5,70.4z"/>
	<path class="st3" d="M17.9,60.7l-3.7-3.7c-0.2-0.2-0.5-0.3-0.7-0.3l-6.2,0.1c-0.5,0-1,0.4-1,1l-0.1,6.2c0,0.3,0.1,0.5,0.3,0.7
		l3.7,3.7c0.3,0.3,0.6,0.4,1,0.3l5-1.3c0.3-0.1,0.6-0.4,0.7-0.7l1.3-5C18.2,61.3,18.1,60.9,17.9,60.7z"/>
	<path class="st3" d="M-6.9,52.5l-0.9-0.3c-0.4-0.2-0.9,0-1.2,0.4l-0.7,1.1c-0.4,0.6,0,1.4,0.7,1.5l1.3,0.2c0.5,0.1,0.9-0.2,1.1-0.6
		l0.3-0.9C-6.1,53.3-6.4,52.7-6.9,52.5z"/>
	<path class="st3" d="M-5.9,47.3l-0.2-0.9c-0.1-0.5-0.5-0.8-1-0.7l-1.3,0.1c-0.7,0-1.2,0.8-0.8,1.5l0.6,1.1c0.2,0.4,0.7,0.6,1.1,0.5
		l0.9-0.2C-6,48.4-5.7,47.8-5.9,47.3z"/>
	<path class="st3" d="M-2,43.8l0.3-0.9c0.2-0.4,0-0.9-0.4-1.2l-1.1-0.7c-0.6-0.4-1.4,0-1.5,0.7L-4.8,43c-0.1,0.5,0.2,0.9,0.6,1.1
		l0.9,0.3C-2.7,44.6-2.1,44.3-2,43.8z"/>
	<path class="st3" d="M3.5,44.6l0.9-0.3c0.4-0.2,0.7-0.6,0.6-1.1l-0.2-1.3c-0.1-0.7-0.9-1.1-1.5-0.7l-1.1,0.7
		c-0.4,0.3-0.6,0.7-0.4,1.2L2.2,44C2.4,44.5,2.9,44.8,3.5,44.6z"/>
	<path class="st3" d="M6.5,48.6l0.9,0.2c0.5,0.1,0.9-0.1,1.1-0.5l0.6-1.1c0.3-0.6-0.1-1.4-0.8-1.5l-1.3-0.1c-0.5,0-0.9,0.3-1,0.7
		l-0.2,0.9C5.7,47.9,6,48.4,6.5,48.6z"/>
	<path class="st3" d="M5.9,53.6l0.2,0.9c0.1,0.5,0.5,0.8,1,0.7l1.3-0.1c0.7,0,1.2-0.8,0.8-1.5l-0.6-1.1C8.5,52.2,8,52,7.6,52.2
		l-0.9,0.2C6.1,52.5,5.8,53.1,5.9,53.6z"/>
	<path class="st3" d="M2.1,56.9l-0.3,0.9c-0.2,0.4,0,0.9,0.4,1.2l1.1,0.7c0.6,0.4,1.4,0,1.5-0.7l0.2-1.3c0.1-0.5-0.2-0.9-0.6-1.1
		l-0.9-0.3C2.9,56.1,2.3,56.4,2.1,56.9z"/>
	<path class="st3" d="M100.5-5.5l-5.3,0c-0.3,0-0.5,0.1-0.7,0.3l-4.3,4.5c-0.4,0.4-0.4,1,0,1.4l4.3,4.5c0.2,0.2,0.4,0.3,0.7,0.3
		l5.3,0c0.4,0,0.7-0.2,0.9-0.5l2.6-4.5c0.2-0.3,0.2-0.7,0-1L101.4-5C101.2-5.3,100.9-5.5,100.5-5.5z"/>
	<path class="st3" d="M77,6l-0.9,0.3c-0.4,0.2-0.7,0.6-0.6,1.1l0.2,1.3c0.1,0.7,0.9,1.1,1.5,0.7l1.1-0.7c0.4-0.3,0.6-0.7,0.4-1.2
		l-0.3-0.9C78,6.1,77.5,5.8,77,6z"/>
	<path class="st3" d="M86.6,0.3L85,1.9v2.3c0,0.2-0.2,0.4-0.4,0.4h-2.3l-1.6,1.6c-0.1,0.1-0.4,0.1-0.5,0l-1.6-1.6h-2.3
		c-0.2,0-0.4-0.2-0.4-0.4V1.9l-1.6-1.6c-0.1-0.1-0.1-0.4,0-0.5l1.6-1.6v-2.3c0-0.2,0.2-0.4,0.4-0.4h2.3l1.6-1.6
		c0.1-0.1,0.4-0.1,0.5,0l1.6,1.6h2.3c0.2,0,0.4,0.2,0.4,0.4v2.3l1.6,1.6C86.7-0.1,86.7,0.1,86.6,0.3z"/>
	<path class="st3" d="M90.6-17.8l-3.7,3.7c-0.2,0.2-0.3,0.5-0.3,0.7l0.1,6.2c0,0.5,0.4,1,1,1l6.2,0.1c0.3,0,0.5-0.1,0.7-0.3l3.7-3.7
		c0.3-0.3,0.4-0.6,0.3-1l-1.3-5c-0.1-0.3-0.4-0.6-0.7-0.7l-5-1.3C91.2-18.2,90.9-18.1,90.6-17.8z"/>
	<path class="st3" d="M75-19.9v5.3c0,0.3,0.1,0.5,0.3,0.7l4.5,4.3c0.4,0.4,1,0.4,1.4,0l4.5-4.3c0.2-0.2,0.3-0.4,0.3-0.7l0-5.3
		c0-0.4-0.2-0.7-0.5-0.9l-4.5-2.6c-0.3-0.2-0.7-0.2-1,0l-4.5,2.6C75.2-20.6,75-20.3,75-19.9z"/>
	<path class="st3" d="M62.4-10.3l3.7,3.7c0.2,0.2,0.5,0.3,0.7,0.3l6.2-0.1c0.5,0,1-0.4,1-1l0.1-6.2c0-0.3-0.1-0.5-0.3-0.7L70.1-18
		c-0.3-0.3-0.6-0.4-1-0.3l-5,1.3c-0.3,0.1-0.6,0.4-0.7,0.7l-1.3,5C62.1-10.9,62.2-10.6,62.4-10.3z"/>
	<path class="st3" d="M60.4,5.5l5.3,0c0.3,0,0.5-0.1,0.7-0.3l4.3-4.5c0.4-0.4,0.4-1,0-1.4l-4.3-4.5c-0.2-0.2-0.4-0.3-0.7-0.3l-5.3,0
		c-0.4,0-0.7,0.2-0.9,0.5l-2.6,4.5c-0.2,0.3-0.2,0.7,0,1L59.5,5C59.7,5.3,60,5.5,60.4,5.5z"/>
	<path class="st3" d="M70.1,18l3.7-3.7c0.2-0.2,0.3-0.5,0.3-0.7L74,7.4c0-0.5-0.4-1-1-1l-6.2-0.1c-0.3,0-0.5,0.1-0.7,0.3l-3.7,3.7
		c-0.3,0.3-0.4,0.6-0.3,1l1.3,5c0.1,0.3,0.4,0.6,0.7,0.7l5,1.3C69.5,18.4,69.9,18.3,70.1,18z"/>
	<path class="st3" d="M85.9,19.9v-5.3c0-0.3-0.1-0.5-0.3-0.7l-4.5-4.3c-0.4-0.4-1-0.4-1.4,0l-4.5,4.3c-0.2,0.2-0.3,0.4-0.3,0.7
		l0,5.3c0,0.4,0.2,0.7,0.5,0.9l4.5,2.6c0.3,0.2,0.7,0.2,1,0l4.5-2.6C85.7,20.6,85.9,20.3,85.9,19.9z"/>
	<path class="st3" d="M98.3,10.2l-3.7-3.7c-0.2-0.2-0.5-0.3-0.7-0.3l-6.2,0.1c-0.5,0-1,0.4-1,1l-0.1,6.2c0,0.3,0.1,0.5,0.3,0.7
		l3.7,3.7c0.3,0.3,0.6,0.4,1,0.3l5-1.3c0.3-0.1,0.6-0.4,0.7-0.7l1.3-5C98.7,10.8,98.6,10.4,98.3,10.2z"/>
	<path class="st3" d="M73.5,2.1l-0.9-0.3c-0.4-0.2-0.9,0-1.2,0.4l-0.7,1.1c-0.4,0.6,0,1.4,0.7,1.5l1.3,0.2c0.5,0.1,0.9-0.2,1.1-0.6
		l0.3-0.9C74.3,2.8,74,2.2,73.5,2.1z"/>
	<path class="st3" d="M74.6-3.2l-0.2-0.9c-0.1-0.5-0.5-0.8-1-0.7l-1.3,0.1c-0.7,0-1.2,0.8-0.8,1.5l0.6,1.1c0.2,0.4,0.7,0.6,1.1,0.5
		L73.9-2C74.4-2.1,74.7-2.7,74.6-3.2z"/>
	<path class="st3" d="M78.5-6.6l0.3-0.9c0.2-0.4,0-0.9-0.4-1.2l-1.1-0.7c-0.6-0.4-1.4,0-1.5,0.7l-0.2,1.3c-0.1,0.5,0.2,0.9,0.6,1.1
		L77.2-6C77.7-5.9,78.3-6.1,78.5-6.6z"/>
	<path class="st3" d="M83.9-5.9l0.9-0.3c0.4-0.2,0.7-0.6,0.6-1.1l-0.2-1.3c-0.1-0.7-0.9-1.1-1.5-0.7l-1.1,0.7
		c-0.4,0.3-0.6,0.7-0.4,1.2l0.3,0.9C82.8-6,83.4-5.7,83.9-5.9z"/>
	<path class="st3" d="M87-1.9l0.9,0.2c0.5,0.1,0.9-0.1,1.1-0.5l0.6-1.1C90-4,89.5-4.7,88.8-4.8l-1.3-0.1c-0.5,0-0.9,0.3-1,0.7
		l-0.2,0.9C86.1-2.6,86.4-2.1,87-1.9z"/>
	<path class="st3" d="M86.4,3.1l0.2,0.9c0.1,0.5,0.5,0.8,1,0.7l1.3-0.1c0.7,0,1.2-0.8,0.8-1.5l-0.6-1.1c-0.2-0.4-0.7-0.6-1.1-0.5
		l-0.9,0.2C86.6,2.1,86.2,2.6,86.4,3.1z"/>
	<path class="st3" d="M82.5,6.5l-0.3,0.9c-0.2,0.4,0,0.9,0.4,1.2l1.1,0.7c0.6,0.4,1.4,0,1.5-0.7l0.2-1.3c0.1-0.5-0.2-0.9-0.6-1.1
		l-0.9-0.3C83.3,5.7,82.7,5.9,82.5,6.5z"/>
	<path class="st3" d="M100.5,45l-5.3,0c-0.3,0-0.5,0.1-0.7,0.3l-4.3,4.5c-0.4,0.4-0.4,1,0,1.4l4.3,4.5c0.2,0.2,0.4,0.3,0.7,0.3h5.3
		c0.4,0,0.7-0.2,0.9-0.5L104,51c0.2-0.3,0.2-0.7,0-1l-2.6-4.5C101.2,45.2,100.9,45,100.5,45z"/>
	<path class="st3" d="M77,56.5l-0.9,0.3c-0.4,0.2-0.7,0.6-0.6,1.1l0.2,1.3c0.1,0.7,0.9,1.1,1.5,0.7l1.1-0.7c0.4-0.3,0.6-0.7,0.4-1.2
		l-0.3-0.9C78,56.6,77.5,56.3,77,56.5z"/>
	<path class="st3" d="M86.6,50.7L85,52.4v2.3c0,0.2-0.2,0.4-0.4,0.4h-2.3l-1.6,1.6c-0.1,0.1-0.4,0.1-0.5,0L78.6,55h-2.3
		c-0.2,0-0.4-0.2-0.4-0.4v-2.3l-1.6-1.6c-0.1-0.1-0.1-0.4,0-0.5l1.6-1.6v-2.3c0-0.2,0.2-0.4,0.4-0.4h2.3l1.6-1.6
		c0.1-0.1,0.4-0.1,0.5,0l1.6,1.6h2.3c0.2,0,0.4,0.2,0.4,0.4v2.3l1.6,1.6C86.7,50.4,86.7,50.6,86.6,50.7z"/>
	<path class="st3" d="M90.6,32.7l-3.7,3.7c-0.2,0.2-0.3,0.5-0.3,0.7l0.1,6.2c0,0.5,0.4,1,1,1l6.2,0.1c0.3,0,0.5-0.1,0.7-0.3l3.7-3.7
		c0.3-0.3,0.4-0.6,0.3-1l-1.3-5c-0.1-0.3-0.4-0.6-0.7-0.7l-5-1.3C91.2,32.3,90.9,32.4,90.6,32.7z"/>
	<path class="st3" d="M75,30.5v5.3c0,0.3,0.1,0.5,0.3,0.7l4.5,4.3c0.4,0.4,1,0.4,1.4,0l4.5-4.3c0.2-0.2,0.3-0.4,0.3-0.7l0-5.3
		c0-0.4-0.2-0.7-0.5-0.9l-4.5-2.6c-0.3-0.2-0.7-0.2-1,0l-4.5,2.6C75.2,29.9,75,30.2,75,30.5z"/>
	<path class="st3" d="M62.4,40.2l3.7,3.7c0.2,0.2,0.5,0.3,0.7,0.3l6.2-0.1c0.5,0,1-0.4,1-1l0.1-6.2c0-0.3-0.1-0.5-0.3-0.7l-3.7-3.7
		c-0.3-0.3-0.6-0.4-1-0.3l-5,1.3c-0.3,0.1-0.6,0.4-0.7,0.7l-1.3,5C62.1,39.5,62.2,39.9,62.4,40.2z"/>
	<path class="st3" d="M60.4,55.9h5.3c0.3,0,0.5-0.1,0.7-0.3l4.3-4.5c0.4-0.4,0.4-1,0-1.4l-4.3-4.5c-0.2-0.2-0.4-0.3-0.7-0.3l-5.3,0
		c-0.4,0-0.7,0.2-0.9,0.5L56.9,50c-0.2,0.3-0.2,0.7,0,1l2.6,4.5C59.7,55.7,60,55.9,60.4,55.9z"/>
	<path class="st3" d="M70.1,68.5l3.7-3.7c0.2-0.2,0.3-0.5,0.3-0.7L74,57.9c0-0.5-0.4-1-1-1l-6.2-0.1c-0.3,0-0.5,0.1-0.7,0.3
		l-3.7,3.7c-0.3,0.3-0.4,0.6-0.3,1l1.3,5c0.1,0.3,0.4,0.6,0.7,0.7l5,1.3C69.5,68.9,69.9,68.8,70.1,68.5z"/>
	<path class="st3" d="M85.9,70.4v-5.3c0-0.3-0.1-0.5-0.3-0.7l-4.5-4.3c-0.4-0.4-1-0.4-1.4,0l-4.5,4.3c-0.2,0.2-0.3,0.4-0.3,0.7
		l0,5.3c0,0.4,0.2,0.7,0.5,0.9l4.5,2.6c0.3,0.2,0.7,0.2,1,0l4.5-2.6C85.7,71.1,85.9,70.8,85.9,70.4z"/>
	<path class="st3" d="M98.3,60.7l-3.7-3.7c-0.2-0.2-0.5-0.3-0.7-0.3l-6.2,0.1c-0.5,0-1,0.4-1,1l-0.1,6.2c0,0.3,0.1,0.5,0.3,0.7
		l3.7,3.7c0.3,0.3,0.6,0.4,1,0.3l5-1.3c0.3-0.1,0.6-0.4,0.7-0.7l1.3-5C98.7,61.3,98.6,60.9,98.3,60.7z"/>
	<path class="st3" d="M73.5,52.5l-0.9-0.3c-0.4-0.2-0.9,0-1.2,0.4l-0.7,1.1c-0.4,0.6,0,1.4,0.7,1.5l1.3,0.2c0.5,0.1,0.9-0.2,1.1-0.6
		l0.3-0.9C74.3,53.3,74,52.7,73.5,52.5z"/>
	<path class="st3" d="M74.6,47.3l-0.2-0.9c-0.1-0.5-0.5-0.8-1-0.7l-1.3,0.1c-0.7,0-1.2,0.8-0.8,1.5l0.6,1.1c0.2,0.4,0.7,0.6,1.1,0.5
		l0.9-0.2C74.4,48.4,74.7,47.8,74.6,47.3z"/>
	<path class="st3" d="M78.5,43.8l0.3-0.9c0.2-0.4,0-0.9-0.4-1.2l-1.1-0.7c-0.6-0.4-1.4,0-1.5,0.7L75.7,43c-0.1,0.5,0.2,0.9,0.6,1.1
		l0.9,0.3C77.7,44.6,78.3,44.3,78.5,43.8z"/>
	<path class="st3" d="M83.9,44.6l0.9-0.3c0.4-0.2,0.7-0.6,0.6-1.1l-0.2-1.3c-0.1-0.7-0.9-1.1-1.5-0.7l-1.1,0.7
		c-0.4,0.3-0.6,0.7-0.4,1.2l0.3,0.9C82.8,44.5,83.4,44.8,83.9,44.6z"/>
	<path class="st3" d="M87,48.6l0.9,0.2c0.5,0.1,0.9-0.1,1.1-0.5l0.6-1.1c0.3-0.6-0.1-1.4-0.8-1.5l-1.3-0.1c-0.5,0-0.9,0.3-1,0.7
		l-0.2,0.9C86.1,47.9,86.4,48.4,87,48.6z"/>
	<path class="st3" d="M86.4,53.6l0.2,0.9c0.1,0.5,0.5,0.8,1,0.7l1.3-0.1c0.7,0,1.2-0.8,0.8-1.5l-0.6-1.1c-0.2-0.4-0.7-0.6-1.1-0.5
		l-0.9,0.2C86.6,52.5,86.2,53.1,86.4,53.6z"/>
	<path class="st3" d="M82.5,56.9l-0.3,0.9c-0.2,0.4,0,0.9,0.4,1.2l1.1,0.7c0.6,0.4,1.4,0,1.5-0.7l0.2-1.3c0.1-0.5-0.2-0.9-0.6-1.1
		l-0.9-0.3C83.3,56.1,82.7,56.4,82.5,56.9z"/>
	<path class="st3" d="M140.7,19.5l-5.3,0c-0.3,0-0.5,0.1-0.7,0.3l-4.3,4.5c-0.4,0.4-0.4,1,0,1.4l4.3,4.5c0.2,0.2,0.4,0.3,0.7,0.3
		l5.3,0c0.4,0,0.7-0.2,0.9-0.5l2.6-4.5c0.2-0.3,0.2-0.7,0-1l-2.6-4.5C141.4,19.7,141.1,19.5,140.7,19.5z"/>
	<path class="st3" d="M117.2,31l-0.9,0.3c-0.4,0.2-0.7,0.6-0.6,1.1l0.2,1.3c0.1,0.7,0.9,1.1,1.5,0.7l1.1-0.7
		c0.4-0.3,0.6-0.7,0.4-1.2l-0.3-0.9C118.3,31.1,117.7,30.8,117.2,31z"/>
	<path class="st3" d="M126.8,25.3l-1.6,1.6v2.3c0,0.2-0.2,0.4-0.4,0.4h-2.3l-1.6,1.6c-0.1,0.1-0.4,0.1-0.5,0l-1.6-1.6h-2.3
		c-0.2,0-0.4-0.2-0.4-0.4v-2.3l-1.6-1.6c-0.1-0.1-0.1-0.4,0-0.5l1.6-1.6v-2.3c0-0.2,0.2-0.4,0.4-0.4h2.3l1.6-1.6
		c0.1-0.1,0.4-0.1,0.5,0l1.6,1.6h2.3c0.2,0,0.4,0.2,0.4,0.4v2.3l1.6,1.6C127,24.9,127,25.1,126.8,25.3z"/>
	<path class="st3" d="M130.8,7.2l-3.7,3.7c-0.2,0.2-0.3,0.5-0.3,0.7l0.1,6.2c0,0.5,0.4,1,1,1l6.2,0.1c0.3,0,0.5-0.1,0.7-0.3l3.7-3.7
		c0.3-0.3,0.4-0.6,0.3-1l-1.3-5c-0.1-0.3-0.4-0.6-0.7-0.7l-5-1.3C131.5,6.8,131.1,6.9,130.8,7.2z"/>
	<path class="st3" d="M115.2,5.1l0,5.3c0,0.3,0.1,0.5,0.3,0.7l4.5,4.3c0.4,0.4,1,0.4,1.4,0l4.5-4.3c0.2-0.2,0.3-0.4,0.3-0.7V5.1
		c0-0.4-0.2-0.7-0.5-0.9l-4.5-2.6c-0.3-0.2-0.7-0.2-1,0l-4.5,2.6C115.4,4.4,115.2,4.7,115.2,5.1z"/>
	<path class="st3" d="M102.6,14.7l3.7,3.7c0.2,0.2,0.5,0.3,0.7,0.3l6.2-0.1c0.5,0,1-0.4,1-1l0.1-6.2c0-0.3-0.1-0.5-0.3-0.7L110.4,7
		c-0.3-0.3-0.6-0.4-1-0.3l-5,1.3c-0.3,0.1-0.6,0.4-0.7,0.7l-1.3,5C102.3,14.1,102.4,14.4,102.6,14.7z"/>
	<path class="st3" d="M100.6,30.5l5.3,0c0.3,0,0.5-0.1,0.7-0.3l4.3-4.5c0.4-0.4,0.4-1,0-1.4l-4.3-4.5c-0.2-0.2-0.4-0.3-0.7-0.3
		l-5.3,0c-0.4,0-0.7,0.2-0.9,0.5l-2.6,4.5c-0.2,0.3-0.2,0.7,0,1l2.6,4.5C99.9,30.3,100.2,30.5,100.6,30.5z"/>
	<path class="st3" d="M110.4,43l3.7-3.7c0.2-0.2,0.3-0.5,0.3-0.7l-0.1-6.2c0-0.5-0.4-1-1-1l-6.2-0.1c-0.3,0-0.5,0.1-0.7,0.3
		l-3.7,3.7c-0.3,0.3-0.4,0.6-0.3,1l1.3,5c0.1,0.3,0.4,0.6,0.7,0.7l5,1.3C109.7,43.4,110.1,43.3,110.4,43z"/>
	<path class="st3" d="M126.1,44.9l0-5.3c0-0.3-0.1-0.5-0.3-0.7l-4.5-4.3c-0.4-0.4-1-0.4-1.4,0l-4.5,4.3c-0.2,0.2-0.3,0.4-0.3,0.7
		v5.3c0,0.4,0.2,0.7,0.5,0.9l4.5,2.6c0.3,0.2,0.7,0.2,1,0l4.5-2.6C125.9,45.6,126.1,45.3,126.1,44.9z"/>
	<path class="st3" d="M138.6,35.2l-3.7-3.7c-0.2-0.2-0.5-0.3-0.7-0.3l-6.2,0.1c-0.5,0-1,0.4-1,1l-0.1,6.2c0,0.3,0.1,0.5,0.3,0.7
		l3.7,3.7c0.3,0.3,0.6,0.4,1,0.3l5-1.3c0.3-0.1,0.6-0.4,0.7-0.7l1.3-5C138.9,35.8,138.8,35.4,138.6,35.2z"/>
	<path class="st3" d="M113.7,27.1l-0.9-0.3c-0.4-0.2-0.9,0-1.2,0.4l-0.7,1.1c-0.4,0.6,0,1.4,0.7,1.5l1.3,0.2
		c0.5,0.1,0.9-0.2,1.1-0.6l0.3-0.9C114.5,27.8,114.3,27.2,113.7,27.1z"/>
	<path class="st3" d="M114.8,21.8l-0.2-0.9c-0.1-0.5-0.5-0.8-1-0.7l-1.3,0.1c-0.7,0-1.2,0.8-0.8,1.5l0.6,1.1
		c0.2,0.4,0.7,0.6,1.1,0.5l0.9-0.2C114.6,22.9,115,22.3,114.8,21.8z"/>
	<path class="st3" d="M118.7,18.4l0.3-0.9c0.2-0.4,0-0.9-0.4-1.2l-1.1-0.7c-0.6-0.4-1.4,0-1.5,0.7l-0.2,1.3
		c-0.1,0.5,0.2,0.9,0.6,1.1l0.9,0.3C118,19.1,118.5,18.9,118.7,18.4z"/>
	<path class="st3" d="M124.1,19.1l0.9-0.3c0.4-0.2,0.7-0.6,0.6-1.1l-0.2-1.3c-0.1-0.7-0.9-1.1-1.5-0.7l-1.1,0.7
		c-0.4,0.3-0.6,0.7-0.4,1.2l0.3,0.9C123,19,123.6,19.3,124.1,19.1z"/>
	<path class="st3" d="M127.2,23.1l0.9,0.2c0.5,0.1,0.9-0.1,1.1-0.5l0.6-1.1c0.3-0.6-0.1-1.4-0.8-1.5l-1.3-0.1c-0.5,0-0.9,0.3-1,0.7
		l-0.2,0.9C126.3,22.4,126.7,22.9,127.2,23.1z"/>
	<path class="st3" d="M126.6,28.1l0.2,0.9c0.1,0.5,0.5,0.8,1,0.7l1.3-0.1c0.7,0,1.2-0.8,0.8-1.5l-0.6-1.1c-0.2-0.4-0.7-0.6-1.1-0.5
		l-0.9,0.2C126.8,27.1,126.5,27.6,126.6,28.1z"/>
	<path class="st3" d="M122.8,31.5l-0.3,0.9c-0.2,0.4,0,0.9,0.4,1.2l1.1,0.7c0.6,0.4,1.4,0,1.5-0.7l0.2-1.3c0.1-0.5-0.2-0.9-0.6-1.1
		l-0.9-0.3C123.5,30.7,123,30.9,122.8,31.5z"/>
</g>
</svg>
