<?xml version="1.0" encoding="utf-8"?>
<!-- Generator: Adobe Illustrator 25.2.0, SVG Export Plug-In . SVG Version: 6.00 Build 0)  -->
<svg version="1.1" id="Layer_1" xmlns="http://www.w3.org/2000/svg" xmlns:xlink="http://www.w3.org/1999/xlink" x="0px" y="0px"
	 viewBox="0 0 100 100" style="enable-background:new 0 0 100 100;" xml:space="preserve">
<style type="text/css">
	.st0{fill:#CE0F66;}
</style>
<g>
	<path class="st0" d="M81.7,41.1h-8.4c-0.5,0-0.8,0.2-1.1,0.5L65.3,49c-0.6,0.6-0.6,1.5,0,2.1l6.9,7.4c0.3,0.3,0.8,0.5,1.1,0.5h8.4
		c0.6,0,1.1-0.3,1.4-0.8l4.1-7.4c0.3-0.5,0.3-1.1,0-1.5l-4.1-7.4C82.8,41.4,82.3,41.1,81.7,41.1z"/>
	<path class="st0" d="M44.6,59.8l-2.1,0.8c-0.5,0.2-0.8,0.8-0.8,1.2l0.5,3.1c0.2,0.9,1.1,1.4,1.8,0.9l2.5-1.7
		c0.5-0.3,0.6-0.9,0.5-1.4l-0.8-2.1C46,59.8,45.2,59.5,44.6,59.8z"/>
	<path class="st0" d="M59.6,50.5L57,53.1v3.7c0,0.3-0.3,0.6-0.6,0.6h-3.7L50.1,60c-0.2,0.3-0.6,0.3-0.8,0l-2.6-2.6H43
		c-0.3,0-0.6-0.3-0.6-0.6v-3.7l-2.6-2.6c-0.2-0.3-0.2-0.6,0-0.8l2.6-2.6v-3.8c0-0.3,0.3-0.6,0.6-0.6h3.7l2.6-2.6
		c0.2-0.3,0.6-0.3,0.8,0l2.6,2.6h3.7c0.3,0,0.6,0.3,0.6,0.6v3.8l2.6,2.6C59.8,49.9,59.8,50.3,59.6,50.5z"/>
	<path class="st0" d="M66.1,21l-6,6.1c-0.3,0.3-0.5,0.8-0.5,1.1l0.2,10.3c0,0.8,0.6,1.5,1.5,1.5l9.8,0.2c0.5,0,0.8-0.2,1.1-0.5
		l6-6.1c0.3-0.5,0.5-0.9,0.5-1.4l-2.1-8.3c-0.2-0.5-0.6-0.9-1.1-1.1l-8-2.1C67,20.4,66.4,20.6,66.1,21z"/>
	<path class="st0" d="M41.1,17.5v8.7c0,0.5,0.2,0.8,0.5,1.1l7.2,7.1c0.6,0.6,1.5,0.6,2.1,0l7.2-7.1c0.3-0.3,0.5-0.6,0.5-1.1v-8.7
		c0-0.6-0.3-1.1-0.8-1.4l-7.2-4.3c-0.5-0.3-1.1-0.3-1.5,0l-7.3,4.3C41.4,16.4,41.1,16.9,41.1,17.5z"/>
	<path class="st0" d="M21.1,33.2l6,6.1c0.3,0.3,0.8,0.5,1.1,0.5l9.8-0.2c0.8,0,1.5-0.6,1.5-1.5l0.2-10.3c0-0.5-0.2-0.8-0.5-1.1
		l-6-6.1c-0.4-0.5-0.9-0.6-1.5-0.5l-7.8,2.3c-0.5,0.2-0.9,0.5-1.1,1.1l-2.1,8.3C20.5,32.2,20.7,32.8,21.1,33.2z"/>
	<path class="st0" d="M17.9,59.1h8.4c0.5,0,0.8-0.2,1.1-0.5l6.9-7.4c0.6-0.6,0.6-1.5,0-2.1l-6.9-7.4c-0.3-0.3-0.8-0.5-1.1-0.5h-8.4
		c-0.6,0-1.1,0.3-1.4,0.8l-4.1,7.4c-0.3,0.5-0.3,1.1,0,1.5l4.1,7.4C16.8,58.8,17.3,59.1,17.9,59.1z"/>
	<path class="st0" d="M33.4,79.6l6-6.1c0.3-0.3,0.5-0.8,0.5-1.1l-0.2-10.3c0-0.8-0.6-1.5-1.5-1.5l-9.8-0.2c-0.5,0-0.8,0.2-1.1,0.5
		l-6,6.1c-0.3,0.5-0.5,0.9-0.5,1.4l2.1,8.3c0,0.6,0.5,0.9,0.9,1.1l8,2.1C32.5,80.2,32.9,80.1,33.4,79.6z"/>
	<path class="st0" d="M58.5,82.8v-8.7c0-0.5-0.2-0.8-0.5-1.1l-7.2-7.1c-0.6-0.6-1.5-0.6-2.1,0L41.5,73c-0.3,0.3-0.5,0.6-0.5,1.1v8.7
		c0,0.6,0.3,1.1,0.8,1.4l7.2,4.1c0.5,0.3,1.1,0.3,1.5,0l7.3-4.2C58.2,83.8,58.5,83.3,58.5,82.8z"/>
	<path class="st0" d="M78.3,66.9l-6-6.1c-0.3-0.3-0.8-0.5-1.1-0.5l-10,0.2c-0.8,0-1.5,0.6-1.5,1.5l-0.2,10.3c0,0.5,0.2,0.8,0.5,1.1
		l6,6.1c0.5,0.5,0.9,0.6,1.5,0.5l8-2.1c0.5-0.2,0.9-0.6,1.1-1.1l2.1-8.3C78.8,67.8,78.6,67.2,78.3,66.9z"/>
	<path class="st0" d="M39.2,53.7l-2.1-0.8c-0.6-0.2-1.1,0-1.4,0.5L34.2,56c-0.5,0.8,0,1.7,0.9,1.8l2.9,0.5c0.6,0.2,1.1-0.3,1.2-0.8
		l0.8-2.1C40.1,54.5,39.8,53.9,39.2,53.7z"/>
	<path class="st0" d="M40.6,45.3L40,43c-0.2-0.6-0.6-0.9-1.2-0.9l-3,0.3c-0.9,0-1.4,0.9-1.1,1.7l1.4,2.8c0.3,0.5,0.8,0.8,1.4,0.6
		l2.1-0.6C40.3,46.6,40.8,46,40.6,45.3z"/>
	<path class="st0" d="M46.6,39.6l0.8-2.1c0.2-0.5,0-1.1-0.5-1.4l-2.5-1.7c-0.8-0.5-1.7,0-1.8,0.9l-0.5,3.1c0,0.6,0.3,1.1,0.8,1.2
		l2.1,0.8C45.7,40.5,46.3,40.2,46.6,39.6z"/>
	<path class="st0" d="M55,40.7l2.1-0.8c0.5-0.2,0.8-0.8,0.8-1.2l-0.5-3.1c-0.2-0.9-1.1-1.4-1.8-0.9L53,36.2
		c-0.5,0.3-0.6,0.9-0.5,1.4l0.8,2.1C53.6,40.5,54.2,40.8,55,40.7z"/>
	<path class="st0" d="M59.8,46.8l2.1,0.6c0.6,0.2,1.1-0.2,1.4-0.6l1.4-2.8c0.5-0.8-0.2-1.7-1.1-1.7l-2.9-0.2c-0.6,0-1.1,0.3-1.2,0.9
		l-0.7,2.4C58.7,46,59.2,46.6,59.8,46.8z"/>
	<path class="st0" d="M59.2,54.8l0.6,2.3C60,57.7,60.4,58,61,58l2.9-0.2c0.9,0,1.4-0.9,1.1-1.7l-1.4-2.8c-0.3-0.5-0.8-0.8-1.4-0.6
		l-2.1,0.6C59.3,53.6,59,54.2,59.2,54.8z"/>
	<path class="st0" d="M53.3,60.3l-0.8,2.1c-0.2,0.5,0,1.1,0.5,1.4l2.5,1.7c0.8,0.5,1.7,0,1.8-0.9l0.5-3.1c0-0.6-0.3-1.1-0.8-1.2
		l-2.1-0.8C54.2,59.4,53.5,59.7,53.3,60.3z"/>
</g>
</svg>
